<svg xmlns="http://www.w3.org/2000/svg" xmlns:xlink="http://www.w3.org/1999/xlink" width="140" zoomAndPan="magnify" viewBox="0 0 104.88 37.5" height="50" preserveAspectRatio="xMidYMid meet" version="1.0"><defs><g/><clipPath id="812999ffaf"><path d="M 0.628906 0 L 104.128906 0 L 104.128906 37.007812 L 0.628906 37.007812 Z M 0.628906 0 " clip-rule="nonzero"/></clipPath><clipPath id="7359969861"><path d="M 0.628906 30.363281 L 104.128906 30.363281 L 104.128906 37.007812 L 0.628906 37.007812 Z M 0.628906 30.363281 " clip-rule="nonzero"/></clipPath><clipPath id="1adccf5235"><path d="M 0.628906 34.453125 L 104.128906 34.453125 L 104.128906 37.007812 L 0.628906 37.007812 Z M 0.628906 34.453125 " clip-rule="nonzero"/></clipPath><clipPath id="7313e349b2"><path d="M 78.875 20.230469 L 104.039062 20.230469 L 104.039062 29 L 78.875 29 Z M 78.875 20.230469 " clip-rule="nonzero"/></clipPath><clipPath id="99a55db389"><path d="M 6 4 L 15 4 L 15 12 L 6 12 Z M 6 4 " clip-rule="nonzero"/></clipPath><clipPath id="fcf907ea16"><path d="M 0 1.878906 L 20.476562 5.078125 L 16.933594 27.746094 L -3.539062 24.546875 Z M 0 1.878906 " clip-rule="nonzero"/></clipPath><clipPath id="32913aed5a"><path d="M 20.203125 5.035156 L -0.273438 1.835938 L -3.816406 24.503906 L 16.660156 27.703125 Z M 20.203125 5.035156 " clip-rule="nonzero"/></clipPath><clipPath id="0f258348d4"><path d="M 7 5 L 14 5 L 14 11 L 7 11 Z M 7 5 " clip-rule="nonzero"/></clipPath><clipPath id="825661d687"><path d="M 0 1.878906 L 20.476562 5.078125 L 16.933594 27.746094 L -3.539062 24.546875 Z M 0 1.878906 " clip-rule="nonzero"/></clipPath><clipPath id="2f585e3fc6"><path d="M 20.203125 5.035156 L -0.273438 1.835938 L -3.816406 24.503906 L 16.660156 27.703125 Z M 20.203125 5.035156 " clip-rule="nonzero"/></clipPath><clipPath id="c2da4b9ab6"><path d="M 0.628906 18 L 1 18 L 1 19 L 0.628906 19 Z M 0.628906 18 " clip-rule="nonzero"/></clipPath><clipPath id="d3d4ad323e"><path d="M 0 1.878906 L 20.476562 5.078125 L 16.933594 27.746094 L -3.539062 24.546875 Z M 0 1.878906 " clip-rule="nonzero"/></clipPath><clipPath id="c5941c2472"><path d="M 20.203125 5.035156 L -0.273438 1.835938 L -3.816406 24.503906 L 16.660156 27.703125 Z M 20.203125 5.035156 " clip-rule="nonzero"/></clipPath><clipPath id="889fe4aa18"><path d="M 1 17 L 3 17 L 3 19 L 1 19 Z M 1 17 " clip-rule="nonzero"/></clipPath><clipPath id="757f717eaf"><path d="M 0 1.878906 L 20.476562 5.078125 L 16.933594 27.746094 L -3.539062 24.546875 Z M 0 1.878906 " clip-rule="nonzero"/></clipPath><clipPath id="a616475118"><path d="M 20.203125 5.035156 L -0.273438 1.835938 L -3.816406 24.503906 L 16.660156 27.703125 Z M 20.203125 5.035156 " clip-rule="nonzero"/></clipPath><clipPath id="96ef2dfd66"><path d="M 2 18 L 5 18 L 5 19 L 2 19 Z M 2 18 " clip-rule="nonzero"/></clipPath><clipPath id="b999297a30"><path d="M 0 1.878906 L 20.476562 5.078125 L 16.933594 27.746094 L -3.539062 24.546875 Z M 0 1.878906 " clip-rule="nonzero"/></clipPath><clipPath id="067a641185"><path d="M 20.203125 5.035156 L -0.273438 1.835938 L -3.816406 24.503906 L 16.660156 27.703125 Z M 20.203125 5.035156 " clip-rule="nonzero"/></clipPath><clipPath id="fb6dc95161"><path d="M 4 18 L 6 18 L 6 21 L 4 21 Z M 4 18 " clip-rule="nonzero"/></clipPath><clipPath id="6d66d6ec34"><path d="M 0 1.878906 L 20.476562 5.078125 L 16.933594 27.746094 L -3.539062 24.546875 Z M 0 1.878906 " clip-rule="nonzero"/></clipPath><clipPath id="972213a8dc"><path d="M 20.203125 5.035156 L -0.273438 1.835938 L -3.816406 24.503906 L 16.660156 27.703125 Z M 20.203125 5.035156 " clip-rule="nonzero"/></clipPath><clipPath id="d9a8cd8498"><path d="M 5 20 L 7 20 L 7 22 L 5 22 Z M 5 20 " clip-rule="nonzero"/></clipPath><clipPath id="962bfa072b"><path d="M 0 1.878906 L 20.476562 5.078125 L 16.933594 27.746094 L -3.539062 24.546875 Z M 0 1.878906 " clip-rule="nonzero"/></clipPath><clipPath id="baf030e38b"><path d="M 20.203125 5.035156 L -0.273438 1.835938 L -3.816406 24.503906 L 16.660156 27.703125 Z M 20.203125 5.035156 " clip-rule="nonzero"/></clipPath><clipPath id="2111921a8e"><path d="M 6 21 L 8 21 L 8 24 L 6 24 Z M 6 21 " clip-rule="nonzero"/></clipPath><clipPath id="694a28f376"><path d="M 0 1.878906 L 20.476562 5.078125 L 16.933594 27.746094 L -3.539062 24.546875 Z M 0 1.878906 " clip-rule="nonzero"/></clipPath><clipPath id="e93dad2d14"><path d="M 20.203125 5.035156 L -0.273438 1.835938 L -3.816406 24.503906 L 16.660156 27.703125 Z M 20.203125 5.035156 " clip-rule="nonzero"/></clipPath><clipPath id="12cc116db2"><path d="M 7 23 L 9 23 L 9 26 L 7 26 Z M 7 23 " clip-rule="nonzero"/></clipPath><clipPath id="9c59fa5b1b"><path d="M 0 1.878906 L 20.476562 5.078125 L 16.933594 27.746094 L -3.539062 24.546875 Z M 0 1.878906 " clip-rule="nonzero"/></clipPath><clipPath id="a9a4b6d87a"><path d="M 20.203125 5.035156 L -0.273438 1.835938 L -3.816406 24.503906 L 16.660156 27.703125 Z M 20.203125 5.035156 " clip-rule="nonzero"/></clipPath><clipPath id="c8c3ee15f8"><path d="M 8 25 L 11 25 L 11 27 L 8 27 Z M 8 25 " clip-rule="nonzero"/></clipPath><clipPath id="aeee245756"><path d="M 0 1.878906 L 20.476562 5.078125 L 16.933594 27.746094 L -3.539062 24.546875 Z M 0 1.878906 " clip-rule="nonzero"/></clipPath><clipPath id="4aec2d8b62"><path d="M 20.203125 5.035156 L -0.273438 1.835938 L -3.816406 24.503906 L 16.660156 27.703125 Z M 20.203125 5.035156 " clip-rule="nonzero"/></clipPath><clipPath id="4b80d602a1"><path d="M 10 26 L 12 26 L 12 28 L 10 28 Z M 10 26 " clip-rule="nonzero"/></clipPath><clipPath id="5c056c7d12"><path d="M 0 1.878906 L 20.476562 5.078125 L 16.933594 27.746094 L -3.539062 24.546875 Z M 0 1.878906 " clip-rule="nonzero"/></clipPath><clipPath id="e517c2f328"><path d="M 20.203125 5.035156 L -0.273438 1.835938 L -3.816406 24.503906 L 16.660156 27.703125 Z M 20.203125 5.035156 " clip-rule="nonzero"/></clipPath><clipPath id="d0d19ab13e"><path d="M 12 26 L 14 26 L 14 28 L 12 28 Z M 12 26 " clip-rule="nonzero"/></clipPath><clipPath id="45b1302074"><path d="M 0 1.878906 L 20.476562 5.078125 L 16.933594 27.746094 L -3.539062 24.546875 Z M 0 1.878906 " clip-rule="nonzero"/></clipPath><clipPath id="1472d2f218"><path d="M 20.203125 5.035156 L -0.273438 1.835938 L -3.816406 24.503906 L 16.660156 27.703125 Z M 20.203125 5.035156 " clip-rule="nonzero"/></clipPath><clipPath id="7be9d28215"><path d="M 13 25 L 16 25 L 16 27 L 13 27 Z M 13 25 " clip-rule="nonzero"/></clipPath><clipPath id="48ec496e48"><path d="M 0 1.878906 L 20.476562 5.078125 L 16.933594 27.746094 L -3.539062 24.546875 Z M 0 1.878906 " clip-rule="nonzero"/></clipPath><clipPath id="7acd74ad7f"><path d="M 20.203125 5.035156 L -0.273438 1.835938 L -3.816406 24.503906 L 16.660156 27.703125 Z M 20.203125 5.035156 " clip-rule="nonzero"/></clipPath><clipPath id="e705db0cff"><path d="M 15 24 L 17 24 L 17 26 L 15 26 Z M 15 24 " clip-rule="nonzero"/></clipPath><clipPath id="57add45144"><path d="M 0 1.878906 L 20.476562 5.078125 L 16.933594 27.746094 L -3.539062 24.546875 Z M 0 1.878906 " clip-rule="nonzero"/></clipPath><clipPath id="5019fb7464"><path d="M 20.203125 5.035156 L -0.273438 1.835938 L -3.816406 24.503906 L 16.660156 27.703125 Z M 20.203125 5.035156 " clip-rule="nonzero"/></clipPath><clipPath id="d49a219303"><path d="M 16 22 L 18 22 L 18 24 L 16 24 Z M 16 22 " clip-rule="nonzero"/></clipPath><clipPath id="8d7ceb64e9"><path d="M 0 1.878906 L 20.476562 5.078125 L 16.933594 27.746094 L -3.539062 24.546875 Z M 0 1.878906 " clip-rule="nonzero"/></clipPath><clipPath id="f428924db6"><path d="M 20.203125 5.035156 L -0.273438 1.835938 L -3.816406 24.503906 L 16.660156 27.703125 Z M 20.203125 5.035156 " clip-rule="nonzero"/></clipPath><clipPath id="415d89c07b"><path d="M 16 20 L 18 20 L 18 23 L 16 23 Z M 16 20 " clip-rule="nonzero"/></clipPath><clipPath id="f9b00ad464"><path d="M 0 1.878906 L 20.476562 5.078125 L 16.933594 27.746094 L -3.539062 24.546875 Z M 0 1.878906 " clip-rule="nonzero"/></clipPath><clipPath id="b966d03497"><path d="M 20.203125 5.035156 L -0.273438 1.835938 L -3.816406 24.503906 L 16.660156 27.703125 Z M 20.203125 5.035156 " clip-rule="nonzero"/></clipPath><clipPath id="8d02b23eac"><path d="M 16 18 L 18 18 L 18 21 L 16 21 Z M 16 18 " clip-rule="nonzero"/></clipPath><clipPath id="9b8d13b24c"><path d="M 0 1.878906 L 20.476562 5.078125 L 16.933594 27.746094 L -3.539062 24.546875 Z M 0 1.878906 " clip-rule="nonzero"/></clipPath><clipPath id="d0ac66f692"><path d="M 20.203125 5.035156 L -0.273438 1.835938 L -3.816406 24.503906 L 16.660156 27.703125 Z M 20.203125 5.035156 " clip-rule="nonzero"/></clipPath><clipPath id="d91d7d46a2"><path d="M 15 16 L 17 16 L 17 19 L 15 19 Z M 15 16 " clip-rule="nonzero"/></clipPath><clipPath id="5919b9bd17"><path d="M 0 1.878906 L 20.476562 5.078125 L 16.933594 27.746094 L -3.539062 24.546875 Z M 0 1.878906 " clip-rule="nonzero"/></clipPath><clipPath id="a2b643206f"><path d="M 20.203125 5.035156 L -0.273438 1.835938 L -3.816406 24.503906 L 16.660156 27.703125 Z M 20.203125 5.035156 " clip-rule="nonzero"/></clipPath><clipPath id="7ad313ccbc"><path d="M 14 15 L 16 15 L 16 17 L 14 17 Z M 14 15 " clip-rule="nonzero"/></clipPath><clipPath id="e02c668bd9"><path d="M 0 1.878906 L 20.476562 5.078125 L 16.933594 27.746094 L -3.539062 24.546875 Z M 0 1.878906 " clip-rule="nonzero"/></clipPath><clipPath id="a0952bbdd3"><path d="M 20.203125 5.035156 L -0.273438 1.835938 L -3.816406 24.503906 L 16.660156 27.703125 Z M 20.203125 5.035156 " clip-rule="nonzero"/></clipPath><clipPath id="e18d0c87ab"><path d="M 12 14 L 14 14 L 14 16 L 12 16 Z M 12 14 " clip-rule="nonzero"/></clipPath><clipPath id="60adeb7ab5"><path d="M 0 1.878906 L 20.476562 5.078125 L 16.933594 27.746094 L -3.539062 24.546875 Z M 0 1.878906 " clip-rule="nonzero"/></clipPath><clipPath id="d2d0f3627b"><path d="M 20.203125 5.035156 L -0.273438 1.835938 L -3.816406 24.503906 L 16.660156 27.703125 Z M 20.203125 5.035156 " clip-rule="nonzero"/></clipPath><clipPath id="6f0e7f834e"><path d="M 10 14 L 13 14 L 13 15 L 10 15 Z M 10 14 " clip-rule="nonzero"/></clipPath><clipPath id="2ed7446c4d"><path d="M 0 1.878906 L 20.476562 5.078125 L 16.933594 27.746094 L -3.539062 24.546875 Z M 0 1.878906 " clip-rule="nonzero"/></clipPath><clipPath id="186bceaa03"><path d="M 20.203125 5.035156 L -0.273438 1.835938 L -3.816406 24.503906 L 16.660156 27.703125 Z M 20.203125 5.035156 " clip-rule="nonzero"/></clipPath><clipPath id="f8ee01f131"><path d="M 8 13 L 11 13 L 11 15 L 8 15 Z M 8 13 " clip-rule="nonzero"/></clipPath><clipPath id="f794e7d48e"><path d="M 0 1.878906 L 20.476562 5.078125 L 16.933594 27.746094 L -3.539062 24.546875 Z M 0 1.878906 " clip-rule="nonzero"/></clipPath><clipPath id="7b6f04bda5"><path d="M 20.203125 5.035156 L -0.273438 1.835938 L -3.816406 24.503906 L 16.660156 27.703125 Z M 20.203125 5.035156 " clip-rule="nonzero"/></clipPath><clipPath id="72d42146a8"><path d="M 7 13 L 9 13 L 9 14 L 7 14 Z M 7 13 " clip-rule="nonzero"/></clipPath><clipPath id="47e730ad64"><path d="M 0 1.878906 L 20.476562 5.078125 L 16.933594 27.746094 L -3.539062 24.546875 Z M 0 1.878906 " clip-rule="nonzero"/></clipPath><clipPath id="166602ffa9"><path d="M 20.203125 5.035156 L -0.273438 1.835938 L -3.816406 24.503906 L 16.660156 27.703125 Z M 20.203125 5.035156 " clip-rule="nonzero"/></clipPath><clipPath id="3f07778e06"><path d="M 5 11 L 7 11 L 7 13 L 5 13 Z M 5 11 " clip-rule="nonzero"/></clipPath><clipPath id="f31560d3b6"><path d="M 0 1.878906 L 20.476562 5.078125 L 16.933594 27.746094 L -3.539062 24.546875 Z M 0 1.878906 " clip-rule="nonzero"/></clipPath><clipPath id="4afc7dd534"><path d="M 20.203125 5.035156 L -0.273438 1.835938 L -3.816406 24.503906 L 16.660156 27.703125 Z M 20.203125 5.035156 " clip-rule="nonzero"/></clipPath><clipPath id="414921818d"><path d="M 6 10 L 7 10 L 7 12 L 6 12 Z M 6 10 " clip-rule="nonzero"/></clipPath><clipPath id="6317a955e3"><path d="M 0 1.878906 L 20.476562 5.078125 L 16.933594 27.746094 L -3.539062 24.546875 Z M 0 1.878906 " clip-rule="nonzero"/></clipPath><clipPath id="5a214698db"><path d="M 20.203125 5.035156 L -0.273438 1.835938 L -3.816406 24.503906 L 16.660156 27.703125 Z M 20.203125 5.035156 " clip-rule="nonzero"/></clipPath></defs><g clip-path="url(#812999ffaf)"><path fill="#ffffff" d="M 0.628906 0 L 104.25 0 L 104.25 37.007812 L 0.628906 37.007812 Z M 0.628906 0 " fill-opacity="1" fill-rule="nonzero"/><path fill="#ffffff" d="M 0.628906 0 L 104.25 0 L 104.25 37.007812 L 0.628906 37.007812 Z M 0.628906 0 " fill-opacity="1" fill-rule="nonzero"/></g><g fill="#ff3131" fill-opacity="1"><g transform="translate(16.081348, 13.846255)"><g><path d="M 0.703125 0 L 5.320312 0 L 5.320312 -1.59375 L 2.460938 -1.59375 L 2.460938 -7.96875 L 0.703125 -7.96875 Z M 0.703125 0 "/></g></g></g><g fill="#ff3131" fill-opacity="1"><g transform="translate(24.153593, 13.846255)"><g><path d="M 5.320312 -1.59375 L 2.460938 -1.59375 L 2.460938 -3.199219 L 5.203125 -3.199219 L 5.203125 -4.792969 L 2.460938 -4.792969 L 2.460938 -6.375 L 5.320312 -6.375 L 5.320312 -7.96875 L 0.703125 -7.96875 L 0.703125 0 L 5.320312 0 Z M 5.320312 -1.59375 "/></g></g></g><g fill="#ff3131" fill-opacity="1"><g transform="translate(32.518728, 13.846255)"><g><path d="M 5.039062 -3.046875 L 3.023438 -3.046875 L 4.03125 -5.882812 Z M 8.015625 0 L 4.78125 -7.96875 L 3.292969 -7.96875 L 0.0585938 0 L 1.945312 0 L 2.519531 -1.605469 L 5.554688 -1.605469 L 6.128906 0 Z M 8.015625 0 "/></g></g></g><g fill="#ff3131" fill-opacity="1"><g transform="translate(42.934094, 13.846255)"><g><path d="M 2.460938 -2.847656 L 2.472656 -2.847656 L 4.371094 0 L 6.597656 0 L 4.3125 -2.929688 C 5.320312 -3.175781 6.128906 -4.066406 6.128906 -5.414062 C 6.128906 -6.925781 4.980469 -7.96875 3.691406 -7.96875 L 0.703125 -7.96875 L 0.703125 0 L 2.460938 0 Z M 3.398438 -6.585938 C 3.914062 -6.585938 4.453125 -6.140625 4.453125 -5.414062 C 4.453125 -4.652344 3.914062 -4.230469 3.398438 -4.230469 L 2.460938 -4.230469 L 2.460938 -6.585938 Z M 3.398438 -6.585938 "/></g></g></g><g fill="#ff3131" fill-opacity="1"><g transform="translate(51.732706, 13.846255)"><g><path d="M 6.960938 0 L 6.960938 -7.96875 L 5.203125 -7.96875 L 5.203125 -3 L 2.460938 -7.96875 L 0.703125 -7.96875 L 0.703125 0 L 2.460938 0 L 2.460938 -4.96875 L 5.203125 0 Z M 6.960938 0 "/></g></g></g><g fill="#ff3131" fill-opacity="1"><g transform="translate(61.738028, 13.846255)"><g><path d="M 2.460938 0 L 2.460938 -7.96875 L 0.703125 -7.96875 L 0.703125 0 Z M 2.460938 0 "/></g></g></g><g fill="#ff3131" fill-opacity="1"><g transform="translate(67.244557, 13.846255)"><g><path d="M 6.960938 0 L 6.960938 -7.96875 L 5.203125 -7.96875 L 5.203125 -3 L 2.460938 -7.96875 L 0.703125 -7.96875 L 0.703125 0 L 2.460938 0 L 2.460938 -4.96875 L 5.203125 0 Z M 6.960938 0 "/></g></g></g><g fill="#ff3131" fill-opacity="1"><g transform="translate(77.249876, 13.846255)"><g><path d="M 4.6875 -6.445312 C 5.460938 -6.445312 6.257812 -6.128906 6.644531 -5.285156 L 8.574219 -5.285156 C 8.027344 -6.9375 6.445312 -8.085938 4.6875 -8.085938 C 2.4375 -8.085938 0.585938 -6.234375 0.585938 -3.984375 C 0.585938 -1.734375 2.4375 0.117188 4.6875 0.117188 C 6.960938 0.117188 8.773438 -1.722656 8.773438 -3.984375 L 8.773438 -4.253906 L 4.851562 -4.253906 L 4.851562 -2.929688 L 6.878906 -2.929688 C 6.445312 -1.722656 5.460938 -1.476562 4.6875 -1.476562 C 3.421875 -1.476562 2.367188 -2.613281 2.367188 -3.960938 C 2.367188 -5.308594 3.421875 -6.445312 4.6875 -6.445312 Z M 4.6875 -6.445312 "/></g></g></g><g fill="#0cc0df" fill-opacity="1"><g transform="translate(36.311595, 25.414631)"><g><path d="M 1.355469 -0.898438 L 1.355469 -3.519531 L 1.648438 -3.519531 C 2.402344 -3.519531 2.910156 -2.949219 2.910156 -2.214844 C 2.910156 -1.476562 2.394531 -0.898438 1.648438 -0.898438 Z M 0.390625 -4.425781 L 0.390625 0 L 1.707031 0 C 2.960938 0 3.90625 -0.964844 3.90625 -2.214844 C 3.90625 -3.464844 2.957031 -4.425781 1.707031 -4.425781 Z M 0.390625 -4.425781 "/></g></g></g><g fill="#0cc0df" fill-opacity="1"><g transform="translate(41.746809, 25.414631)"><g><path d="M 1.277344 -1.777344 C 1.277344 -1.777344 1.308594 -2.3125 1.921875 -2.3125 C 2.511719 -2.3125 2.558594 -1.777344 2.558594 -1.777344 Z M 3.496094 -1.496094 C 3.496094 -2.414062 2.773438 -2.9375 1.902344 -2.9375 C 0.9375 -2.9375 0.226562 -2.332031 0.226562 -1.433594 C 0.226562 -0.519531 0.910156 0.0664062 1.902344 0.0664062 C 2.664062 0.0664062 3.273438 -0.3125 3.445312 -1.066406 L 2.449219 -1.066406 C 2.441406 -0.859375 2.226562 -0.632812 1.882812 -0.632812 C 1.496094 -0.632812 1.261719 -0.984375 1.261719 -1.316406 L 3.488281 -1.316406 C 3.488281 -1.375 3.496094 -1.4375 3.496094 -1.496094 Z M 3.496094 -1.496094 "/></g></g></g><g fill="#0cc0df" fill-opacity="1"><g transform="translate(46.771937, 25.414631)"><g><path d="M 3.046875 -2 C 2.960938 -2.65625 2.410156 -2.9375 1.652344 -2.9375 C 0.703125 -2.9375 0.253906 -2.609375 0.253906 -2.023438 C 0.253906 -0.984375 2.109375 -1.457031 2.109375 -0.851562 C 2.109375 -0.695312 1.921875 -0.613281 1.699219 -0.613281 C 1.484375 -0.613281 1.101562 -0.636719 1.101562 -1.066406 L 0.128906 -1.066406 C 0.183594 -0.253906 0.828125 0.0664062 1.679688 0.0664062 C 2.511719 0.0664062 3.09375 -0.183594 3.09375 -0.859375 C 3.09375 -2.070312 1.238281 -1.660156 1.238281 -2.0625 C 1.238281 -2.234375 1.4375 -2.332031 1.628906 -2.332031 C 1.816406 -2.332031 2.058594 -2.257812 2.089844 -2 Z M 3.046875 -2 "/></g></g></g><g fill="#0cc0df" fill-opacity="1"><g transform="translate(51.360947, 25.414631)"><g><path d="M 1.621094 -2.117188 L 2.140625 -2.117188 L 2.140625 -2.871094 L 1.621094 -2.871094 L 1.621094 -3.964844 L 0.652344 -3.964844 L 0.652344 -2.871094 L 0.128906 -2.871094 L 0.128906 -2.117188 L 0.652344 -2.117188 L 0.652344 0 L 1.621094 0 Z M 1.621094 -2.117188 "/></g></g></g><g fill="#0cc0df" fill-opacity="1"><g transform="translate(54.934518, 25.414631)"><g><path d="M 0.339844 -3.851562 C 0.339844 -3.539062 0.59375 -3.28125 0.910156 -3.28125 C 1.222656 -3.28125 1.484375 -3.539062 1.484375 -3.851562 C 1.484375 -4.171875 1.222656 -4.425781 0.910156 -4.425781 C 0.59375 -4.425781 0.339844 -4.171875 0.339844 -3.851562 Z M 1.398438 0 L 1.398438 -2.871094 L 0.421875 -2.871094 L 0.421875 0 Z M 1.398438 0 "/></g></g></g><g fill="#0cc0df" fill-opacity="1"><g transform="translate(58.058952, 25.414631)"><g><path d="M 3.328125 -1.628906 C 3.328125 -2.410156 3.015625 -2.9375 2.246094 -2.9375 C 1.867188 -2.9375 1.5625 -2.765625 1.367188 -2.519531 L 1.367188 -2.871094 L 0.390625 -2.871094 L 0.390625 0 L 1.367188 0 L 1.367188 -1.433594 C 1.367188 -1.824219 1.609375 -2.148438 1.914062 -2.148438 C 2.21875 -2.148438 2.351562 -1.964844 2.351562 -1.628906 L 2.351562 0 L 3.328125 0 Z M 3.328125 -1.628906 "/></g></g></g><g fill="#0cc0df" fill-opacity="1"><g transform="translate(62.979933, 25.414631)"><g><path d="M 1.554688 1.628906 L 2.179688 0 L 3.273438 -2.871094 L 2.285156 -2.871094 L 1.601562 -0.820312 L 0.917969 -2.871094 L -0.0664062 -2.871094 L 1.027344 0 L 1.191406 0 L 0.539062 1.628906 Z M 1.554688 1.628906 "/></g></g></g><g clip-path="url(#7359969861)"><path fill="#0cc0df" d="M -4.714844 38.542969 L -4.714844 30.363281 L 105.308594 30.363281 L 105.308594 38.542969 Z M -4.714844 38.542969 " fill-opacity="1" fill-rule="nonzero"/></g><g clip-path="url(#1adccf5235)"><path fill="#0cc0df" d="M -4.714844 42.636719 L -4.714844 34.453125 L 105.308594 34.453125 L 105.308594 42.636719 Z M -4.714844 42.636719 " fill-opacity="1" fill-rule="nonzero"/></g><g clip-path="url(#7313e349b2)"><path fill="#e9c7c6" d="M 85.175781 20.332031 C 85.175781 20.332031 85.175781 20.328125 85.175781 20.328125 C 85.179688 20.328125 85.179688 20.332031 85.179688 20.332031 C 85.179688 20.332031 85.179688 20.335938 85.175781 20.335938 C 85.175781 20.335938 85.175781 20.332031 85.175781 20.332031 Z M 86.226562 20.339844 C 86.230469 20.339844 86.234375 20.335938 86.234375 20.332031 C 86.234375 20.328125 86.230469 20.328125 86.226562 20.328125 C 86.222656 20.328125 86.222656 20.328125 86.222656 20.332031 C 86.222656 20.335938 86.222656 20.339844 86.226562 20.339844 Z M 87.277344 20.351562 C 87.285156 20.351562 87.292969 20.34375 87.292969 20.332031 C 87.292969 20.324219 87.285156 20.316406 87.277344 20.316406 C 87.269531 20.316406 87.261719 20.324219 87.261719 20.332031 C 87.261719 20.34375 87.269531 20.351562 87.277344 20.351562 Z M 88.328125 20.363281 C 88.34375 20.363281 88.355469 20.347656 88.355469 20.332031 C 88.355469 20.316406 88.34375 20.304688 88.328125 20.304688 C 88.3125 20.304688 88.296875 20.316406 88.296875 20.332031 C 88.296875 20.347656 88.3125 20.363281 88.328125 20.363281 Z M 89.378906 20.375 C 89.398438 20.375 89.417969 20.355469 89.417969 20.332031 C 89.417969 20.308594 89.398438 20.292969 89.378906 20.292969 C 89.355469 20.292969 89.335938 20.308594 89.335938 20.332031 C 89.335938 20.355469 89.355469 20.375 89.378906 20.375 Z M 90.425781 20.386719 C 90.457031 20.386719 90.480469 20.363281 90.480469 20.332031 C 90.480469 20.304688 90.457031 20.28125 90.425781 20.28125 C 90.398438 20.28125 90.375 20.304688 90.375 20.332031 C 90.375 20.363281 90.398438 20.386719 90.425781 20.386719 Z M 91.476562 20.398438 C 91.511719 20.398438 91.539062 20.367188 91.539062 20.332031 C 91.539062 20.296875 91.511719 20.269531 91.476562 20.269531 C 91.441406 20.269531 91.414062 20.296875 91.414062 20.332031 C 91.414062 20.367188 91.441406 20.398438 91.476562 20.398438 Z M 92.527344 20.410156 C 92.570312 20.410156 92.605469 20.375 92.605469 20.332031 C 92.605469 20.289062 92.570312 20.253906 92.527344 20.253906 C 92.484375 20.253906 92.449219 20.289062 92.449219 20.332031 C 92.449219 20.375 92.484375 20.410156 92.527344 20.410156 Z M 93.578125 20.417969 C 93.625 20.417969 93.664062 20.378906 93.664062 20.332031 C 93.664062 20.285156 93.625 20.246094 93.578125 20.246094 C 93.527344 20.246094 93.488281 20.285156 93.488281 20.332031 C 93.488281 20.378906 93.527344 20.417969 93.578125 20.417969 Z M 94.625 20.425781 C 94.675781 20.425781 94.71875 20.382812 94.71875 20.332031 C 94.71875 20.28125 94.675781 20.238281 94.625 20.238281 C 94.574219 20.238281 94.53125 20.28125 94.53125 20.332031 C 94.53125 20.382812 94.574219 20.425781 94.625 20.425781 Z M 95.675781 20.429688 C 95.730469 20.429688 95.773438 20.386719 95.773438 20.332031 C 95.773438 20.28125 95.730469 20.238281 95.675781 20.238281 C 95.621094 20.238281 95.578125 20.28125 95.578125 20.332031 C 95.578125 20.386719 95.621094 20.429688 95.675781 20.429688 Z M 96.726562 20.433594 C 96.78125 20.433594 96.828125 20.390625 96.828125 20.332031 C 96.828125 20.277344 96.78125 20.230469 96.726562 20.230469 C 96.667969 20.230469 96.625 20.277344 96.625 20.332031 C 96.625 20.390625 96.667969 20.433594 96.726562 20.433594 Z M 97.777344 20.429688 C 97.828125 20.429688 97.871094 20.386719 97.871094 20.332031 C 97.871094 20.28125 97.828125 20.238281 97.777344 20.238281 C 97.722656 20.238281 97.679688 20.28125 97.679688 20.332031 C 97.679688 20.386719 97.722656 20.429688 97.777344 20.429688 Z M 98.824219 20.410156 C 98.867188 20.410156 98.902344 20.375 98.902344 20.332031 C 98.902344 20.289062 98.867188 20.253906 98.824219 20.253906 C 98.78125 20.253906 98.746094 20.289062 98.746094 20.332031 C 98.746094 20.375 98.78125 20.410156 98.824219 20.410156 Z M 99.875 20.378906 C 99.902344 20.378906 99.921875 20.359375 99.921875 20.332031 C 99.921875 20.308594 99.902344 20.285156 99.875 20.285156 C 99.847656 20.285156 99.828125 20.308594 99.828125 20.332031 C 99.828125 20.359375 99.847656 20.378906 99.875 20.378906 Z M 100.925781 20.34375 C 100.929688 20.34375 100.9375 20.339844 100.9375 20.332031 C 100.9375 20.324219 100.929688 20.320312 100.925781 20.320312 C 100.917969 20.320312 100.914062 20.324219 100.914062 20.332031 C 100.914062 20.339844 100.917969 20.34375 100.925781 20.34375 Z M 82.027344 21.390625 C 82.03125 21.390625 82.035156 21.386719 82.035156 21.382812 C 82.035156 21.378906 82.03125 21.375 82.027344 21.375 C 82.023438 21.375 82.019531 21.378906 82.019531 21.382812 C 82.019531 21.386719 82.023438 21.390625 82.027344 21.390625 Z M 83.078125 21.410156 C 83.09375 21.410156 83.105469 21.398438 83.105469 21.382812 C 83.105469 21.367188 83.09375 21.355469 83.078125 21.355469 C 83.0625 21.355469 83.050781 21.367188 83.050781 21.382812 C 83.050781 21.398438 83.0625 21.410156 83.078125 21.410156 Z M 84.128906 21.425781 C 84.152344 21.425781 84.171875 21.40625 84.171875 21.382812 C 84.171875 21.359375 84.152344 21.339844 84.128906 21.339844 C 84.105469 21.339844 84.085938 21.359375 84.085938 21.382812 C 84.085938 21.40625 84.105469 21.425781 84.128906 21.425781 Z M 85.175781 21.445312 C 85.210938 21.445312 85.238281 21.417969 85.238281 21.382812 C 85.238281 21.347656 85.210938 21.320312 85.175781 21.320312 C 85.144531 21.320312 85.117188 21.347656 85.117188 21.382812 C 85.117188 21.417969 85.144531 21.445312 85.175781 21.445312 Z M 86.226562 21.460938 C 86.269531 21.460938 86.304688 21.425781 86.304688 21.382812 C 86.304688 21.339844 86.269531 21.304688 86.226562 21.304688 C 86.183594 21.304688 86.148438 21.339844 86.148438 21.382812 C 86.148438 21.425781 86.183594 21.460938 86.226562 21.460938 Z M 87.277344 21.472656 C 87.328125 21.472656 87.367188 21.433594 87.367188 21.382812 C 87.367188 21.332031 87.328125 21.292969 87.277344 21.292969 C 87.226562 21.292969 87.1875 21.332031 87.1875 21.382812 C 87.1875 21.433594 87.226562 21.472656 87.277344 21.472656 Z M 88.328125 21.484375 C 88.382812 21.484375 88.429688 21.4375 88.429688 21.382812 C 88.429688 21.328125 88.382812 21.28125 88.328125 21.28125 C 88.269531 21.28125 88.226562 21.328125 88.226562 21.382812 C 88.226562 21.4375 88.269531 21.484375 88.328125 21.484375 Z M 89.378906 21.496094 C 89.441406 21.496094 89.492188 21.445312 89.492188 21.382812 C 89.492188 21.320312 89.441406 21.269531 89.378906 21.269531 C 89.3125 21.269531 89.261719 21.320312 89.261719 21.382812 C 89.261719 21.445312 89.3125 21.496094 89.378906 21.496094 Z M 90.425781 21.503906 C 90.496094 21.503906 90.550781 21.449219 90.550781 21.382812 C 90.550781 21.316406 90.496094 21.261719 90.425781 21.261719 C 90.359375 21.261719 90.304688 21.316406 90.304688 21.382812 C 90.304688 21.449219 90.359375 21.503906 90.425781 21.503906 Z M 91.476562 21.515625 C 91.550781 21.515625 91.609375 21.457031 91.609375 21.382812 C 91.609375 21.3125 91.550781 21.25 91.476562 21.25 C 91.402344 21.25 91.34375 21.3125 91.34375 21.382812 C 91.34375 21.457031 91.402344 21.515625 91.476562 21.515625 Z M 92.527344 21.527344 C 92.605469 21.527344 92.667969 21.460938 92.667969 21.382812 C 92.667969 21.304688 92.605469 21.238281 92.527344 21.238281 C 92.449219 21.238281 92.382812 21.304688 92.382812 21.382812 C 92.382812 21.460938 92.449219 21.527344 92.527344 21.527344 Z M 93.578125 21.535156 C 93.660156 21.535156 93.726562 21.464844 93.726562 21.382812 C 93.726562 21.300781 93.660156 21.230469 93.578125 21.230469 C 93.492188 21.230469 93.425781 21.300781 93.425781 21.382812 C 93.425781 21.464844 93.492188 21.535156 93.578125 21.535156 Z M 94.625 21.542969 C 94.714844 21.542969 94.785156 21.472656 94.785156 21.382812 C 94.785156 21.292969 94.714844 21.222656 94.625 21.222656 C 94.539062 21.222656 94.464844 21.292969 94.464844 21.382812 C 94.464844 21.472656 94.539062 21.542969 94.625 21.542969 Z M 95.675781 21.550781 C 95.769531 21.550781 95.84375 21.476562 95.84375 21.382812 C 95.84375 21.289062 95.769531 21.214844 95.675781 21.214844 C 95.582031 21.214844 95.507812 21.289062 95.507812 21.382812 C 95.507812 21.476562 95.582031 21.550781 95.675781 21.550781 Z M 96.726562 21.5625 C 96.824219 21.5625 96.902344 21.480469 96.902344 21.382812 C 96.902344 21.285156 96.824219 21.207031 96.726562 21.207031 C 96.628906 21.207031 96.546875 21.285156 96.546875 21.382812 C 96.546875 21.480469 96.628906 21.5625 96.726562 21.5625 Z M 97.777344 21.574219 C 97.878906 21.574219 97.964844 21.488281 97.964844 21.382812 C 97.964844 21.277344 97.878906 21.195312 97.777344 21.195312 C 97.671875 21.195312 97.585938 21.277344 97.585938 21.382812 C 97.585938 21.488281 97.671875 21.574219 97.777344 21.574219 Z M 98.824219 21.582031 C 98.933594 21.582031 99.023438 21.492188 99.023438 21.382812 C 99.023438 21.273438 98.933594 21.183594 98.824219 21.183594 C 98.714844 21.183594 98.628906 21.273438 98.628906 21.382812 C 98.628906 21.492188 98.714844 21.582031 98.824219 21.582031 Z M 99.875 21.589844 C 99.988281 21.589844 100.082031 21.496094 100.082031 21.382812 C 100.082031 21.269531 99.988281 21.175781 99.875 21.175781 C 99.761719 21.175781 99.667969 21.269531 99.667969 21.382812 C 99.667969 21.496094 99.761719 21.589844 99.875 21.589844 Z M 100.925781 21.589844 C 101.039062 21.589844 101.132812 21.496094 101.132812 21.382812 C 101.132812 21.269531 101.039062 21.175781 100.925781 21.175781 C 100.8125 21.175781 100.71875 21.269531 100.71875 21.382812 C 100.71875 21.496094 100.8125 21.589844 100.925781 21.589844 Z M 101.976562 21.539062 C 102.058594 21.539062 102.128906 21.46875 102.128906 21.382812 C 102.128906 21.296875 102.058594 21.230469 101.976562 21.230469 C 101.890625 21.230469 101.820312 21.296875 101.820312 21.382812 C 101.820312 21.46875 101.890625 21.539062 101.976562 21.539062 Z M 103.023438 21.429688 C 103.050781 21.429688 103.070312 21.410156 103.070312 21.382812 C 103.070312 21.355469 103.050781 21.335938 103.023438 21.335938 C 103 21.335938 102.976562 21.355469 102.976562 21.382812 C 102.976562 21.410156 103 21.429688 103.023438 21.429688 Z M 79.929688 22.4375 C 79.933594 22.4375 79.933594 22.4375 79.933594 22.433594 C 79.933594 22.429688 79.933594 22.425781 79.929688 22.425781 C 79.925781 22.425781 79.921875 22.429688 79.921875 22.433594 C 79.921875 22.4375 79.925781 22.4375 79.929688 22.4375 Z M 80.976562 22.453125 C 80.988281 22.453125 81 22.445312 81 22.433594 C 81 22.421875 80.988281 22.414062 80.976562 22.414062 C 80.96875 22.414062 80.957031 22.421875 80.957031 22.433594 C 80.957031 22.445312 80.96875 22.453125 80.976562 22.453125 Z M 82.027344 22.46875 C 82.046875 22.46875 82.0625 22.453125 82.0625 22.433594 C 82.0625 22.414062 82.046875 22.398438 82.027344 22.398438 C 82.007812 22.398438 81.992188 22.414062 81.992188 22.433594 C 81.992188 22.453125 82.007812 22.46875 82.027344 22.46875 Z M 83.078125 22.480469 C 83.105469 22.480469 83.125 22.460938 83.125 22.433594 C 83.125 22.40625 83.105469 22.386719 83.078125 22.386719 C 83.050781 22.386719 83.03125 22.40625 83.03125 22.433594 C 83.03125 22.460938 83.050781 22.480469 83.078125 22.480469 Z M 84.128906 22.492188 C 84.160156 22.492188 84.1875 22.464844 84.1875 22.433594 C 84.1875 22.402344 84.160156 22.375 84.128906 22.375 C 84.09375 22.375 84.070312 22.402344 84.070312 22.433594 C 84.070312 22.464844 84.09375 22.492188 84.128906 22.492188 Z M 85.175781 22.503906 C 85.214844 22.503906 85.246094 22.472656 85.246094 22.433594 C 85.246094 22.394531 85.214844 22.363281 85.175781 22.363281 C 85.140625 22.363281 85.109375 22.394531 85.109375 22.433594 C 85.109375 22.472656 85.140625 22.503906 85.175781 22.503906 Z M 86.226562 22.515625 C 86.273438 22.515625 86.308594 22.480469 86.308594 22.433594 C 86.308594 22.386719 86.273438 22.351562 86.226562 22.351562 C 86.183594 22.351562 86.144531 22.386719 86.144531 22.433594 C 86.144531 22.480469 86.183594 22.515625 86.226562 22.515625 Z M 87.277344 22.523438 C 87.328125 22.523438 87.367188 22.484375 87.367188 22.433594 C 87.367188 22.382812 87.328125 22.34375 87.277344 22.34375 C 87.226562 22.34375 87.1875 22.382812 87.1875 22.433594 C 87.1875 22.484375 87.226562 22.523438 87.277344 22.523438 Z M 88.328125 22.535156 C 88.382812 22.535156 88.429688 22.488281 88.429688 22.433594 C 88.429688 22.378906 88.382812 22.332031 88.328125 22.332031 C 88.269531 22.332031 88.226562 22.378906 88.226562 22.433594 C 88.226562 22.488281 88.269531 22.535156 88.328125 22.535156 Z M 89.378906 22.546875 C 89.441406 22.546875 89.492188 22.496094 89.492188 22.433594 C 89.492188 22.371094 89.441406 22.320312 89.378906 22.320312 C 89.3125 22.320312 89.261719 22.371094 89.261719 22.433594 C 89.261719 22.496094 89.3125 22.546875 89.378906 22.546875 Z M 90.425781 22.554688 C 90.496094 22.554688 90.550781 22.5 90.550781 22.433594 C 90.550781 22.367188 90.496094 22.3125 90.425781 22.3125 C 90.359375 22.3125 90.304688 22.367188 90.304688 22.433594 C 90.304688 22.5 90.359375 22.554688 90.425781 22.554688 Z M 91.476562 22.566406 C 91.550781 22.566406 91.609375 22.507812 91.609375 22.433594 C 91.609375 22.363281 91.550781 22.300781 91.476562 22.300781 C 91.402344 22.300781 91.34375 22.363281 91.34375 22.433594 C 91.34375 22.507812 91.402344 22.566406 91.476562 22.566406 Z M 92.527344 22.578125 C 92.605469 22.578125 92.667969 22.511719 92.667969 22.433594 C 92.667969 22.355469 92.605469 22.289062 92.527344 22.289062 C 92.449219 22.289062 92.382812 22.355469 92.382812 22.433594 C 92.382812 22.511719 92.449219 22.578125 92.527344 22.578125 Z M 93.578125 22.585938 C 93.660156 22.585938 93.726562 22.515625 93.726562 22.433594 C 93.726562 22.351562 93.660156 22.28125 93.578125 22.28125 C 93.492188 22.28125 93.425781 22.351562 93.425781 22.433594 C 93.425781 22.515625 93.492188 22.585938 93.578125 22.585938 Z M 94.625 22.59375 C 94.714844 22.59375 94.785156 22.523438 94.785156 22.433594 C 94.785156 22.34375 94.714844 22.273438 94.625 22.273438 C 94.539062 22.273438 94.464844 22.34375 94.464844 22.433594 C 94.464844 22.523438 94.539062 22.59375 94.625 22.59375 Z M 95.675781 22.601562 C 95.769531 22.601562 95.84375 22.527344 95.84375 22.433594 C 95.84375 22.339844 95.769531 22.265625 95.675781 22.265625 C 95.582031 22.265625 95.507812 22.339844 95.507812 22.433594 C 95.507812 22.527344 95.582031 22.601562 95.675781 22.601562 Z M 96.726562 22.613281 C 96.824219 22.613281 96.902344 22.53125 96.902344 22.433594 C 96.902344 22.335938 96.824219 22.257812 96.726562 22.257812 C 96.628906 22.257812 96.546875 22.335938 96.546875 22.433594 C 96.546875 22.53125 96.628906 22.613281 96.726562 22.613281 Z M 97.777344 22.625 C 97.878906 22.625 97.964844 22.539062 97.964844 22.433594 C 97.964844 22.328125 97.878906 22.246094 97.777344 22.246094 C 97.671875 22.246094 97.585938 22.328125 97.585938 22.433594 C 97.585938 22.539062 97.671875 22.625 97.777344 22.625 Z M 98.824219 22.632812 C 98.933594 22.632812 99.023438 22.542969 99.023438 22.433594 C 99.023438 22.324219 98.933594 22.234375 98.824219 22.234375 C 98.714844 22.234375 98.628906 22.324219 98.628906 22.433594 C 98.628906 22.542969 98.714844 22.632812 98.824219 22.632812 Z M 99.875 22.640625 C 99.988281 22.640625 100.082031 22.546875 100.082031 22.433594 C 100.082031 22.320312 99.988281 22.226562 99.875 22.226562 C 99.761719 22.226562 99.667969 22.320312 99.667969 22.433594 C 99.667969 22.546875 99.761719 22.640625 99.875 22.640625 Z M 100.925781 22.65625 C 101.046875 22.65625 101.144531 22.554688 101.144531 22.433594 C 101.144531 22.3125 101.046875 22.210938 100.925781 22.210938 C 100.804688 22.210938 100.703125 22.3125 100.703125 22.433594 C 100.703125 22.554688 100.804688 22.65625 100.925781 22.65625 Z M 101.976562 22.667969 C 102.101562 22.667969 102.207031 22.5625 102.207031 22.433594 C 102.207031 22.304688 102.101562 22.199219 101.976562 22.199219 C 101.847656 22.199219 101.742188 22.304688 101.742188 22.433594 C 101.742188 22.5625 101.847656 22.667969 101.976562 22.667969 Z M 103.023438 22.667969 C 103.15625 22.667969 103.261719 22.5625 103.261719 22.433594 C 103.261719 22.304688 103.15625 22.199219 103.023438 22.199219 C 102.894531 22.199219 102.789062 22.304688 102.789062 22.433594 C 102.789062 22.5625 102.894531 22.667969 103.023438 22.667969 Z M 104.074219 22.496094 C 104.109375 22.496094 104.136719 22.46875 104.136719 22.433594 C 104.136719 22.398438 104.109375 22.371094 104.074219 22.371094 C 104.039062 22.371094 104.011719 22.398438 104.011719 22.433594 C 104.011719 22.46875 104.039062 22.496094 104.074219 22.496094 Z M 78.878906 23.488281 C 78.878906 23.488281 78.882812 23.484375 78.882812 23.484375 C 78.882812 23.484375 78.878906 23.480469 78.878906 23.480469 C 78.878906 23.480469 78.875 23.484375 78.875 23.484375 C 78.875 23.484375 78.878906 23.488281 78.878906 23.488281 Z M 79.929688 23.496094 C 79.933594 23.496094 79.941406 23.492188 79.941406 23.484375 C 79.941406 23.476562 79.933594 23.472656 79.929688 23.472656 C 79.921875 23.472656 79.917969 23.476562 79.917969 23.484375 C 79.917969 23.492188 79.921875 23.496094 79.929688 23.496094 Z M 80.976562 23.507812 C 80.992188 23.507812 81 23.496094 81 23.484375 C 81 23.472656 80.992188 23.460938 80.976562 23.460938 C 80.964844 23.460938 80.953125 23.472656 80.953125 23.484375 C 80.953125 23.496094 80.964844 23.507812 80.976562 23.507812 Z M 82.027344 23.519531 C 82.046875 23.519531 82.0625 23.503906 82.0625 23.484375 C 82.0625 23.464844 82.046875 23.449219 82.027344 23.449219 C 82.007812 23.449219 81.992188 23.464844 81.992188 23.484375 C 81.992188 23.503906 82.007812 23.519531 82.027344 23.519531 Z M 83.078125 23.53125 C 83.105469 23.53125 83.125 23.511719 83.125 23.484375 C 83.125 23.457031 83.105469 23.4375 83.078125 23.4375 C 83.050781 23.4375 83.03125 23.457031 83.03125 23.484375 C 83.03125 23.511719 83.050781 23.53125 83.078125 23.53125 Z M 84.128906 23.542969 C 84.160156 23.542969 84.1875 23.515625 84.1875 23.484375 C 84.1875 23.453125 84.160156 23.425781 84.128906 23.425781 C 84.09375 23.425781 84.070312 23.453125 84.070312 23.484375 C 84.070312 23.515625 84.09375 23.542969 84.128906 23.542969 Z M 85.175781 23.554688 C 85.214844 23.554688 85.246094 23.523438 85.246094 23.484375 C 85.246094 23.445312 85.214844 23.414062 85.175781 23.414062 C 85.140625 23.414062 85.109375 23.445312 85.109375 23.484375 C 85.109375 23.523438 85.140625 23.554688 85.175781 23.554688 Z M 86.226562 23.566406 C 86.273438 23.566406 86.308594 23.53125 86.308594 23.484375 C 86.308594 23.441406 86.273438 23.402344 86.226562 23.402344 C 86.183594 23.402344 86.144531 23.441406 86.144531 23.484375 C 86.144531 23.53125 86.183594 23.566406 86.226562 23.566406 Z M 87.277344 23.574219 C 87.328125 23.574219 87.367188 23.535156 87.367188 23.484375 C 87.367188 23.433594 87.328125 23.394531 87.277344 23.394531 C 87.226562 23.394531 87.1875 23.433594 87.1875 23.484375 C 87.1875 23.535156 87.226562 23.574219 87.277344 23.574219 Z M 88.328125 23.585938 C 88.382812 23.585938 88.429688 23.539062 88.429688 23.484375 C 88.429688 23.429688 88.382812 23.382812 88.328125 23.382812 C 88.269531 23.382812 88.226562 23.429688 88.226562 23.484375 C 88.226562 23.539062 88.269531 23.585938 88.328125 23.585938 Z M 89.378906 23.597656 C 89.441406 23.597656 89.492188 23.546875 89.492188 23.484375 C 89.492188 23.421875 89.441406 23.371094 89.378906 23.371094 C 89.3125 23.371094 89.261719 23.421875 89.261719 23.484375 C 89.261719 23.546875 89.3125 23.597656 89.378906 23.597656 Z M 90.425781 23.605469 C 90.496094 23.605469 90.550781 23.550781 90.550781 23.484375 C 90.550781 23.417969 90.496094 23.363281 90.425781 23.363281 C 90.359375 23.363281 90.304688 23.417969 90.304688 23.484375 C 90.304688 23.550781 90.359375 23.605469 90.425781 23.605469 Z M 91.476562 23.617188 C 91.550781 23.617188 91.609375 23.558594 91.609375 23.484375 C 91.609375 23.414062 91.550781 23.355469 91.476562 23.355469 C 91.402344 23.355469 91.34375 23.414062 91.34375 23.484375 C 91.34375 23.558594 91.402344 23.617188 91.476562 23.617188 Z M 92.527344 23.628906 C 92.605469 23.628906 92.667969 23.5625 92.667969 23.484375 C 92.667969 23.40625 92.605469 23.34375 92.527344 23.34375 C 92.449219 23.34375 92.382812 23.40625 92.382812 23.484375 C 92.382812 23.5625 92.449219 23.628906 92.527344 23.628906 Z M 93.578125 23.636719 C 93.660156 23.636719 93.726562 23.566406 93.726562 23.484375 C 93.726562 23.402344 93.660156 23.332031 93.578125 23.332031 C 93.492188 23.332031 93.425781 23.402344 93.425781 23.484375 C 93.425781 23.566406 93.492188 23.636719 93.578125 23.636719 Z M 94.625 23.644531 C 94.714844 23.644531 94.785156 23.574219 94.785156 23.484375 C 94.785156 23.394531 94.714844 23.324219 94.625 23.324219 C 94.539062 23.324219 94.464844 23.394531 94.464844 23.484375 C 94.464844 23.574219 94.539062 23.644531 94.625 23.644531 Z M 95.675781 23.652344 C 95.769531 23.652344 95.84375 23.578125 95.84375 23.484375 C 95.84375 23.390625 95.769531 23.316406 95.675781 23.316406 C 95.582031 23.316406 95.507812 23.390625 95.507812 23.484375 C 95.507812 23.578125 95.582031 23.652344 95.675781 23.652344 Z M 96.726562 23.664062 C 96.824219 23.664062 96.902344 23.582031 96.902344 23.484375 C 96.902344 23.386719 96.824219 23.308594 96.726562 23.308594 C 96.628906 23.308594 96.546875 23.386719 96.546875 23.484375 C 96.546875 23.582031 96.628906 23.664062 96.726562 23.664062 Z M 97.777344 23.675781 C 97.878906 23.675781 97.964844 23.589844 97.964844 23.484375 C 97.964844 23.378906 97.878906 23.296875 97.777344 23.296875 C 97.671875 23.296875 97.585938 23.378906 97.585938 23.484375 C 97.585938 23.589844 97.671875 23.675781 97.777344 23.675781 Z M 98.824219 23.683594 C 98.933594 23.683594 99.023438 23.59375 99.023438 23.484375 C 99.023438 23.375 98.933594 23.285156 98.824219 23.285156 C 98.714844 23.285156 98.628906 23.375 98.628906 23.484375 C 98.628906 23.59375 98.714844 23.683594 98.824219 23.683594 Z M 99.875 23.691406 C 99.988281 23.691406 100.082031 23.597656 100.082031 23.484375 C 100.082031 23.371094 99.988281 23.277344 99.875 23.277344 C 99.761719 23.277344 99.667969 23.371094 99.667969 23.484375 C 99.667969 23.597656 99.761719 23.691406 99.875 23.691406 Z M 100.925781 23.707031 C 101.046875 23.707031 101.144531 23.605469 101.144531 23.484375 C 101.144531 23.363281 101.046875 23.261719 100.925781 23.261719 C 100.804688 23.261719 100.703125 23.363281 100.703125 23.484375 C 100.703125 23.605469 100.804688 23.707031 100.925781 23.707031 Z M 101.976562 23.71875 C 102.101562 23.71875 102.207031 23.613281 102.207031 23.484375 C 102.207031 23.355469 102.101562 23.25 101.976562 23.25 C 101.847656 23.25 101.742188 23.355469 101.742188 23.484375 C 101.742188 23.613281 101.847656 23.71875 101.976562 23.71875 Z M 103.023438 23.730469 C 103.160156 23.730469 103.273438 23.621094 103.273438 23.484375 C 103.273438 23.347656 103.160156 23.238281 103.023438 23.238281 C 102.886719 23.238281 102.777344 23.347656 102.777344 23.484375 C 102.777344 23.621094 102.886719 23.730469 103.023438 23.730469 Z M 104.074219 23.652344 C 104.167969 23.652344 104.242188 23.578125 104.242188 23.484375 C 104.242188 23.390625 104.167969 23.316406 104.074219 23.316406 C 103.980469 23.316406 103.90625 23.390625 103.90625 23.484375 C 103.90625 23.578125 103.980469 23.652344 104.074219 23.652344 Z M 78.878906 24.539062 C 78.878906 24.539062 78.882812 24.535156 78.882812 24.535156 C 78.882812 24.535156 78.878906 24.53125 78.878906 24.53125 C 78.878906 24.53125 78.875 24.535156 78.875 24.535156 C 78.875 24.535156 78.878906 24.539062 78.878906 24.539062 Z M 79.929688 24.546875 C 79.933594 24.546875 79.941406 24.542969 79.941406 24.535156 C 79.941406 24.527344 79.933594 24.523438 79.929688 24.523438 C 79.921875 24.523438 79.917969 24.527344 79.917969 24.535156 C 79.917969 24.542969 79.921875 24.546875 79.929688 24.546875 Z M 80.976562 24.558594 C 80.992188 24.558594 81 24.546875 81 24.535156 C 81 24.523438 80.992188 24.511719 80.976562 24.511719 C 80.964844 24.511719 80.953125 24.523438 80.953125 24.535156 C 80.953125 24.546875 80.964844 24.558594 80.976562 24.558594 Z M 82.027344 24.570312 C 82.046875 24.570312 82.0625 24.554688 82.0625 24.535156 C 82.0625 24.515625 82.046875 24.5 82.027344 24.5 C 82.007812 24.5 81.992188 24.515625 81.992188 24.535156 C 81.992188 24.554688 82.007812 24.570312 82.027344 24.570312 Z M 83.078125 24.582031 C 83.105469 24.582031 83.125 24.5625 83.125 24.535156 C 83.125 24.507812 83.105469 24.488281 83.078125 24.488281 C 83.050781 24.488281 83.03125 24.507812 83.03125 24.535156 C 83.03125 24.5625 83.050781 24.582031 83.078125 24.582031 Z M 84.128906 24.59375 C 84.160156 24.59375 84.1875 24.566406 84.1875 24.535156 C 84.1875 24.503906 84.160156 24.476562 84.128906 24.476562 C 84.09375 24.476562 84.070312 24.503906 84.070312 24.535156 C 84.070312 24.566406 84.09375 24.59375 84.128906 24.59375 Z M 85.175781 24.605469 C 85.214844 24.605469 85.246094 24.574219 85.246094 24.535156 C 85.246094 24.496094 85.214844 24.464844 85.175781 24.464844 C 85.140625 24.464844 85.109375 24.496094 85.109375 24.535156 C 85.109375 24.574219 85.140625 24.605469 85.175781 24.605469 Z M 86.226562 24.617188 C 86.273438 24.617188 86.308594 24.582031 86.308594 24.535156 C 86.308594 24.492188 86.273438 24.453125 86.226562 24.453125 C 86.183594 24.453125 86.144531 24.492188 86.144531 24.535156 C 86.144531 24.582031 86.183594 24.617188 86.226562 24.617188 Z M 87.277344 24.625 C 87.328125 24.625 87.367188 24.585938 87.367188 24.535156 C 87.367188 24.484375 87.328125 24.445312 87.277344 24.445312 C 87.226562 24.445312 87.1875 24.484375 87.1875 24.535156 C 87.1875 24.585938 87.226562 24.625 87.277344 24.625 Z M 88.328125 24.636719 C 88.382812 24.636719 88.429688 24.589844 88.429688 24.535156 C 88.429688 24.480469 88.382812 24.433594 88.328125 24.433594 C 88.269531 24.433594 88.226562 24.480469 88.226562 24.535156 C 88.226562 24.589844 88.269531 24.636719 88.328125 24.636719 Z M 89.378906 24.648438 C 89.441406 24.648438 89.492188 24.597656 89.492188 24.535156 C 89.492188 24.472656 89.441406 24.421875 89.378906 24.421875 C 89.3125 24.421875 89.261719 24.472656 89.261719 24.535156 C 89.261719 24.597656 89.3125 24.648438 89.378906 24.648438 Z M 90.425781 24.65625 C 90.496094 24.65625 90.550781 24.601562 90.550781 24.535156 C 90.550781 24.46875 90.496094 24.414062 90.425781 24.414062 C 90.359375 24.414062 90.304688 24.46875 90.304688 24.535156 C 90.304688 24.601562 90.359375 24.65625 90.425781 24.65625 Z M 91.476562 24.667969 C 91.550781 24.667969 91.609375 24.609375 91.609375 24.535156 C 91.609375 24.464844 91.550781 24.40625 91.476562 24.40625 C 91.402344 24.40625 91.34375 24.464844 91.34375 24.535156 C 91.34375 24.609375 91.402344 24.667969 91.476562 24.667969 Z M 92.527344 24.679688 C 92.605469 24.679688 92.667969 24.613281 92.667969 24.535156 C 92.667969 24.457031 92.605469 24.394531 92.527344 24.394531 C 92.449219 24.394531 92.382812 24.457031 92.382812 24.535156 C 92.382812 24.613281 92.449219 24.679688 92.527344 24.679688 Z M 93.578125 24.6875 C 93.660156 24.6875 93.726562 24.621094 93.726562 24.535156 C 93.726562 24.453125 93.660156 24.382812 93.578125 24.382812 C 93.492188 24.382812 93.425781 24.453125 93.425781 24.535156 C 93.425781 24.621094 93.492188 24.6875 93.578125 24.6875 Z M 94.625 24.695312 C 94.714844 24.695312 94.785156 24.625 94.785156 24.535156 C 94.785156 24.445312 94.714844 24.375 94.625 24.375 C 94.539062 24.375 94.464844 24.445312 94.464844 24.535156 C 94.464844 24.625 94.539062 24.695312 94.625 24.695312 Z M 95.675781 24.703125 C 95.769531 24.703125 95.84375 24.628906 95.84375 24.535156 C 95.84375 24.441406 95.769531 24.367188 95.675781 24.367188 C 95.582031 24.367188 95.507812 24.441406 95.507812 24.535156 C 95.507812 24.628906 95.582031 24.703125 95.675781 24.703125 Z M 96.726562 24.714844 C 96.824219 24.714844 96.902344 24.632812 96.902344 24.535156 C 96.902344 24.4375 96.824219 24.359375 96.726562 24.359375 C 96.628906 24.359375 96.546875 24.4375 96.546875 24.535156 C 96.546875 24.632812 96.628906 24.714844 96.726562 24.714844 Z M 97.777344 24.726562 C 97.878906 24.726562 97.964844 24.640625 97.964844 24.535156 C 97.964844 24.429688 97.878906 24.347656 97.777344 24.347656 C 97.671875 24.347656 97.585938 24.429688 97.585938 24.535156 C 97.585938 24.640625 97.671875 24.726562 97.777344 24.726562 Z M 98.824219 24.734375 C 98.933594 24.734375 99.023438 24.644531 99.023438 24.535156 C 99.023438 24.425781 98.933594 24.335938 98.824219 24.335938 C 98.714844 24.335938 98.628906 24.425781 98.628906 24.535156 C 98.628906 24.644531 98.714844 24.734375 98.824219 24.734375 Z M 99.875 24.742188 C 99.988281 24.742188 100.082031 24.648438 100.082031 24.535156 C 100.082031 24.421875 99.988281 24.328125 99.875 24.328125 C 99.761719 24.328125 99.667969 24.421875 99.667969 24.535156 C 99.667969 24.648438 99.761719 24.742188 99.875 24.742188 Z M 100.925781 24.757812 C 101.046875 24.757812 101.144531 24.65625 101.144531 24.535156 C 101.144531 24.414062 101.046875 24.3125 100.925781 24.3125 C 100.804688 24.3125 100.703125 24.414062 100.703125 24.535156 C 100.703125 24.65625 100.804688 24.757812 100.925781 24.757812 Z M 101.976562 24.769531 C 102.101562 24.769531 102.207031 24.664062 102.207031 24.535156 C 102.207031 24.40625 102.101562 24.300781 101.976562 24.300781 C 101.847656 24.300781 101.742188 24.40625 101.742188 24.535156 C 101.742188 24.664062 101.847656 24.769531 101.976562 24.769531 Z M 103.023438 24.785156 C 103.160156 24.785156 103.273438 24.671875 103.273438 24.535156 C 103.273438 24.398438 103.160156 24.289062 103.023438 24.289062 C 102.886719 24.289062 102.777344 24.398438 102.777344 24.535156 C 102.777344 24.671875 102.886719 24.785156 103.023438 24.785156 Z M 104.074219 24.671875 C 104.148438 24.671875 104.210938 24.609375 104.210938 24.535156 C 104.210938 24.460938 104.148438 24.398438 104.074219 24.398438 C 104 24.398438 103.9375 24.460938 103.9375 24.535156 C 103.9375 24.609375 104 24.671875 104.074219 24.671875 Z M 78.878906 25.589844 C 78.878906 25.589844 78.882812 25.585938 78.882812 25.585938 C 78.882812 25.585938 78.878906 25.582031 78.878906 25.582031 C 78.878906 25.582031 78.875 25.585938 78.875 25.585938 C 78.875 25.585938 78.878906 25.589844 78.878906 25.589844 Z M 79.929688 25.597656 C 79.933594 25.597656 79.941406 25.59375 79.941406 25.585938 C 79.941406 25.578125 79.933594 25.574219 79.929688 25.574219 C 79.921875 25.574219 79.917969 25.578125 79.917969 25.585938 C 79.917969 25.59375 79.921875 25.597656 79.929688 25.597656 Z M 80.976562 25.609375 C 80.992188 25.609375 81 25.597656 81 25.585938 C 81 25.574219 80.992188 25.5625 80.976562 25.5625 C 80.964844 25.5625 80.953125 25.574219 80.953125 25.585938 C 80.953125 25.597656 80.964844 25.609375 80.976562 25.609375 Z M 82.027344 25.621094 C 82.046875 25.621094 82.0625 25.605469 82.0625 25.585938 C 82.0625 25.566406 82.046875 25.550781 82.027344 25.550781 C 82.007812 25.550781 81.992188 25.566406 81.992188 25.585938 C 81.992188 25.605469 82.007812 25.621094 82.027344 25.621094 Z M 83.078125 25.632812 C 83.105469 25.632812 83.125 25.613281 83.125 25.585938 C 83.125 25.558594 83.105469 25.539062 83.078125 25.539062 C 83.050781 25.539062 83.03125 25.558594 83.03125 25.585938 C 83.03125 25.613281 83.050781 25.632812 83.078125 25.632812 Z M 84.128906 25.644531 C 84.160156 25.644531 84.1875 25.617188 84.1875 25.585938 C 84.1875 25.554688 84.160156 25.527344 84.128906 25.527344 C 84.09375 25.527344 84.070312 25.554688 84.070312 25.585938 C 84.070312 25.617188 84.09375 25.644531 84.128906 25.644531 Z M 85.175781 25.65625 C 85.214844 25.65625 85.246094 25.625 85.246094 25.585938 C 85.246094 25.546875 85.214844 25.515625 85.175781 25.515625 C 85.140625 25.515625 85.109375 25.546875 85.109375 25.585938 C 85.109375 25.625 85.140625 25.65625 85.175781 25.65625 Z M 86.226562 25.667969 C 86.273438 25.667969 86.308594 25.632812 86.308594 25.585938 C 86.308594 25.542969 86.273438 25.503906 86.226562 25.503906 C 86.183594 25.503906 86.144531 25.542969 86.144531 25.585938 C 86.144531 25.632812 86.183594 25.667969 86.226562 25.667969 Z M 87.277344 25.675781 C 87.328125 25.675781 87.367188 25.636719 87.367188 25.585938 C 87.367188 25.535156 87.328125 25.496094 87.277344 25.496094 C 87.226562 25.496094 87.1875 25.535156 87.1875 25.585938 C 87.1875 25.636719 87.226562 25.675781 87.277344 25.675781 Z M 88.328125 25.6875 C 88.382812 25.6875 88.429688 25.644531 88.429688 25.585938 C 88.429688 25.53125 88.382812 25.484375 88.328125 25.484375 C 88.269531 25.484375 88.226562 25.53125 88.226562 25.585938 C 88.226562 25.644531 88.269531 25.6875 88.328125 25.6875 Z M 89.378906 25.699219 C 89.441406 25.699219 89.492188 25.648438 89.492188 25.585938 C 89.492188 25.523438 89.441406 25.472656 89.378906 25.472656 C 89.3125 25.472656 89.261719 25.523438 89.261719 25.585938 C 89.261719 25.648438 89.3125 25.699219 89.378906 25.699219 Z M 90.425781 25.707031 C 90.496094 25.707031 90.550781 25.652344 90.550781 25.585938 C 90.550781 25.519531 90.496094 25.464844 90.425781 25.464844 C 90.359375 25.464844 90.304688 25.519531 90.304688 25.585938 C 90.304688 25.652344 90.359375 25.707031 90.425781 25.707031 Z M 91.476562 25.71875 C 91.550781 25.71875 91.609375 25.660156 91.609375 25.585938 C 91.609375 25.515625 91.550781 25.457031 91.476562 25.457031 C 91.402344 25.457031 91.34375 25.515625 91.34375 25.585938 C 91.34375 25.660156 91.402344 25.71875 91.476562 25.71875 Z M 92.527344 25.730469 C 92.605469 25.730469 92.667969 25.664062 92.667969 25.585938 C 92.667969 25.507812 92.605469 25.445312 92.527344 25.445312 C 92.449219 25.445312 92.382812 25.507812 92.382812 25.585938 C 92.382812 25.664062 92.449219 25.730469 92.527344 25.730469 Z M 93.578125 25.738281 C 93.660156 25.738281 93.726562 25.671875 93.726562 25.585938 C 93.726562 25.503906 93.660156 25.433594 93.578125 25.433594 C 93.492188 25.433594 93.425781 25.503906 93.425781 25.585938 C 93.425781 25.671875 93.492188 25.738281 93.578125 25.738281 Z M 94.625 25.746094 C 94.714844 25.746094 94.785156 25.675781 94.785156 25.585938 C 94.785156 25.496094 94.714844 25.425781 94.625 25.425781 C 94.539062 25.425781 94.464844 25.496094 94.464844 25.585938 C 94.464844 25.675781 94.539062 25.746094 94.625 25.746094 Z M 95.675781 25.753906 C 95.769531 25.753906 95.84375 25.679688 95.84375 25.585938 C 95.84375 25.492188 95.769531 25.417969 95.675781 25.417969 C 95.582031 25.417969 95.507812 25.492188 95.507812 25.585938 C 95.507812 25.679688 95.582031 25.753906 95.675781 25.753906 Z M 96.726562 25.765625 C 96.824219 25.765625 96.902344 25.683594 96.902344 25.585938 C 96.902344 25.488281 96.824219 25.410156 96.726562 25.410156 C 96.628906 25.410156 96.546875 25.488281 96.546875 25.585938 C 96.546875 25.683594 96.628906 25.765625 96.726562 25.765625 Z M 97.777344 25.777344 C 97.878906 25.777344 97.964844 25.691406 97.964844 25.585938 C 97.964844 25.480469 97.878906 25.398438 97.777344 25.398438 C 97.671875 25.398438 97.585938 25.480469 97.585938 25.585938 C 97.585938 25.691406 97.671875 25.777344 97.777344 25.777344 Z M 98.824219 25.785156 C 98.933594 25.785156 99.023438 25.695312 99.023438 25.585938 C 99.023438 25.476562 98.933594 25.386719 98.824219 25.386719 C 98.714844 25.386719 98.628906 25.476562 98.628906 25.585938 C 98.628906 25.695312 98.714844 25.785156 98.824219 25.785156 Z M 99.875 25.792969 C 99.988281 25.792969 100.082031 25.699219 100.082031 25.585938 C 100.082031 25.472656 99.988281 25.378906 99.875 25.378906 C 99.761719 25.378906 99.667969 25.472656 99.667969 25.585938 C 99.667969 25.699219 99.761719 25.792969 99.875 25.792969 Z M 100.925781 25.808594 C 101.046875 25.808594 101.144531 25.707031 101.144531 25.585938 C 101.144531 25.464844 101.046875 25.363281 100.925781 25.363281 C 100.804688 25.363281 100.703125 25.464844 100.703125 25.585938 C 100.703125 25.707031 100.804688 25.808594 100.925781 25.808594 Z M 101.976562 25.820312 C 102.101562 25.820312 102.207031 25.714844 102.207031 25.585938 C 102.207031 25.457031 102.101562 25.351562 101.976562 25.351562 C 101.847656 25.351562 101.742188 25.457031 101.742188 25.585938 C 101.742188 25.714844 101.847656 25.820312 101.976562 25.820312 Z M 103.023438 25.8125 C 103.148438 25.8125 103.25 25.710938 103.25 25.585938 C 103.25 25.460938 103.148438 25.359375 103.023438 25.359375 C 102.898438 25.359375 102.796875 25.460938 102.796875 25.585938 C 102.796875 25.710938 102.898438 25.8125 103.023438 25.8125 Z M 104.074219 25.628906 C 104.097656 25.628906 104.117188 25.609375 104.117188 25.585938 C 104.117188 25.5625 104.097656 25.542969 104.074219 25.542969 C 104.050781 25.542969 104.03125 25.5625 104.03125 25.585938 C 104.03125 25.609375 104.050781 25.628906 104.074219 25.628906 Z M 79.929688 26.644531 C 79.933594 26.644531 79.9375 26.640625 79.9375 26.636719 C 79.9375 26.632812 79.933594 26.628906 79.929688 26.628906 C 79.921875 26.628906 79.917969 26.632812 79.917969 26.636719 C 79.917969 26.640625 79.921875 26.644531 79.929688 26.644531 Z M 80.976562 26.660156 C 80.992188 26.660156 81 26.648438 81 26.636719 C 81 26.625 80.992188 26.613281 80.976562 26.613281 C 80.964844 26.613281 80.953125 26.625 80.953125 26.636719 C 80.953125 26.648438 80.964844 26.660156 80.976562 26.660156 Z M 82.027344 26.671875 C 82.046875 26.671875 82.0625 26.65625 82.0625 26.636719 C 82.0625 26.617188 82.046875 26.601562 82.027344 26.601562 C 82.007812 26.601562 81.992188 26.617188 81.992188 26.636719 C 81.992188 26.65625 82.007812 26.671875 82.027344 26.671875 Z M 83.078125 26.683594 C 83.105469 26.683594 83.125 26.664062 83.125 26.636719 C 83.125 26.609375 83.105469 26.589844 83.078125 26.589844 C 83.050781 26.589844 83.03125 26.609375 83.03125 26.636719 C 83.03125 26.664062 83.050781 26.683594 83.078125 26.683594 Z M 84.128906 26.695312 C 84.160156 26.695312 84.1875 26.667969 84.1875 26.636719 C 84.1875 26.605469 84.160156 26.578125 84.128906 26.578125 C 84.09375 26.578125 84.070312 26.605469 84.070312 26.636719 C 84.070312 26.667969 84.09375 26.695312 84.128906 26.695312 Z M 85.175781 26.707031 C 85.214844 26.707031 85.246094 26.675781 85.246094 26.636719 C 85.246094 26.597656 85.214844 26.566406 85.175781 26.566406 C 85.140625 26.566406 85.109375 26.597656 85.109375 26.636719 C 85.109375 26.675781 85.140625 26.707031 85.175781 26.707031 Z M 86.226562 26.71875 C 86.273438 26.71875 86.308594 26.683594 86.308594 26.636719 C 86.308594 26.59375 86.273438 26.554688 86.226562 26.554688 C 86.183594 26.554688 86.144531 26.59375 86.144531 26.636719 C 86.144531 26.683594 86.183594 26.71875 86.226562 26.71875 Z M 87.277344 26.726562 C 87.328125 26.726562 87.367188 26.6875 87.367188 26.636719 C 87.367188 26.585938 87.328125 26.546875 87.277344 26.546875 C 87.226562 26.546875 87.1875 26.585938 87.1875 26.636719 C 87.1875 26.6875 87.226562 26.726562 87.277344 26.726562 Z M 88.328125 26.738281 C 88.382812 26.738281 88.429688 26.695312 88.429688 26.636719 C 88.429688 26.582031 88.382812 26.535156 88.328125 26.535156 C 88.269531 26.535156 88.226562 26.582031 88.226562 26.636719 C 88.226562 26.695312 88.269531 26.738281 88.328125 26.738281 Z M 89.378906 26.75 C 89.441406 26.75 89.492188 26.699219 89.492188 26.636719 C 89.492188 26.574219 89.441406 26.523438 89.378906 26.523438 C 89.3125 26.523438 89.261719 26.574219 89.261719 26.636719 C 89.261719 26.699219 89.3125 26.75 89.378906 26.75 Z M 90.425781 26.757812 C 90.496094 26.757812 90.550781 26.703125 90.550781 26.636719 C 90.550781 26.570312 90.496094 26.515625 90.425781 26.515625 C 90.359375 26.515625 90.304688 26.570312 90.304688 26.636719 C 90.304688 26.703125 90.359375 26.757812 90.425781 26.757812 Z M 91.476562 26.769531 C 91.550781 26.769531 91.609375 26.710938 91.609375 26.636719 C 91.609375 26.566406 91.550781 26.507812 91.476562 26.507812 C 91.402344 26.507812 91.34375 26.566406 91.34375 26.636719 C 91.34375 26.710938 91.402344 26.769531 91.476562 26.769531 Z M 92.527344 26.78125 C 92.605469 26.78125 92.667969 26.714844 92.667969 26.636719 C 92.667969 26.558594 92.605469 26.496094 92.527344 26.496094 C 92.449219 26.496094 92.382812 26.558594 92.382812 26.636719 C 92.382812 26.714844 92.449219 26.78125 92.527344 26.78125 Z M 93.578125 26.789062 C 93.660156 26.789062 93.726562 26.722656 93.726562 26.636719 C 93.726562 26.554688 93.660156 26.484375 93.578125 26.484375 C 93.492188 26.484375 93.425781 26.554688 93.425781 26.636719 C 93.425781 26.722656 93.492188 26.789062 93.578125 26.789062 Z M 94.625 26.796875 C 94.714844 26.796875 94.785156 26.726562 94.785156 26.636719 C 94.785156 26.546875 94.714844 26.476562 94.625 26.476562 C 94.539062 26.476562 94.464844 26.546875 94.464844 26.636719 C 94.464844 26.726562 94.539062 26.796875 94.625 26.796875 Z M 95.675781 26.804688 C 95.769531 26.804688 95.84375 26.730469 95.84375 26.636719 C 95.84375 26.542969 95.769531 26.46875 95.675781 26.46875 C 95.582031 26.46875 95.507812 26.542969 95.507812 26.636719 C 95.507812 26.730469 95.582031 26.804688 95.675781 26.804688 Z M 96.726562 26.816406 C 96.824219 26.816406 96.902344 26.734375 96.902344 26.636719 C 96.902344 26.539062 96.824219 26.460938 96.726562 26.460938 C 96.628906 26.460938 96.546875 26.539062 96.546875 26.636719 C 96.546875 26.734375 96.628906 26.816406 96.726562 26.816406 Z M 97.777344 26.828125 C 97.878906 26.828125 97.964844 26.742188 97.964844 26.636719 C 97.964844 26.53125 97.878906 26.449219 97.777344 26.449219 C 97.671875 26.449219 97.585938 26.53125 97.585938 26.636719 C 97.585938 26.742188 97.671875 26.828125 97.777344 26.828125 Z M 98.824219 26.835938 C 98.933594 26.835938 99.023438 26.746094 99.023438 26.636719 C 99.023438 26.527344 98.933594 26.4375 98.824219 26.4375 C 98.714844 26.4375 98.628906 26.527344 98.628906 26.636719 C 98.628906 26.746094 98.714844 26.835938 98.824219 26.835938 Z M 99.875 26.84375 C 99.988281 26.84375 100.082031 26.75 100.082031 26.636719 C 100.082031 26.523438 99.988281 26.429688 99.875 26.429688 C 99.761719 26.429688 99.667969 26.523438 99.667969 26.636719 C 99.667969 26.75 99.761719 26.84375 99.875 26.84375 Z M 100.925781 26.851562 C 101.042969 26.851562 101.140625 26.757812 101.140625 26.636719 C 101.140625 26.519531 101.042969 26.421875 100.925781 26.421875 C 100.804688 26.421875 100.710938 26.519531 100.710938 26.636719 C 100.710938 26.757812 100.804688 26.851562 100.925781 26.851562 Z M 101.976562 26.804688 C 102.066406 26.804688 102.140625 26.730469 102.140625 26.636719 C 102.140625 26.546875 102.066406 26.472656 101.976562 26.472656 C 101.882812 26.472656 101.808594 26.546875 101.808594 26.636719 C 101.808594 26.730469 101.882812 26.804688 101.976562 26.804688 Z M 103.023438 26.679688 C 103.046875 26.679688 103.066406 26.660156 103.066406 26.636719 C 103.066406 26.613281 103.046875 26.597656 103.023438 26.597656 C 103.003906 26.597656 102.984375 26.613281 102.984375 26.636719 C 102.984375 26.660156 103.003906 26.679688 103.023438 26.679688 Z M 80.976562 27.695312 C 80.984375 27.695312 80.988281 27.691406 80.988281 27.6875 C 80.988281 27.683594 80.984375 27.679688 80.976562 27.679688 C 80.972656 27.679688 80.96875 27.683594 80.96875 27.6875 C 80.96875 27.691406 80.972656 27.695312 80.976562 27.695312 Z M 82.027344 27.714844 C 82.042969 27.714844 82.054688 27.703125 82.054688 27.6875 C 82.054688 27.671875 82.042969 27.660156 82.027344 27.660156 C 82.015625 27.660156 82.003906 27.671875 82.003906 27.6875 C 82.003906 27.703125 82.015625 27.714844 82.027344 27.714844 Z M 83.078125 27.730469 C 83.101562 27.730469 83.121094 27.710938 83.121094 27.6875 C 83.121094 27.664062 83.101562 27.644531 83.078125 27.644531 C 83.054688 27.644531 83.035156 27.664062 83.035156 27.6875 C 83.035156 27.710938 83.054688 27.730469 83.078125 27.730469 Z M 84.128906 27.746094 C 84.160156 27.746094 84.1875 27.71875 84.1875 27.6875 C 84.1875 27.65625 84.160156 27.628906 84.128906 27.628906 C 84.09375 27.628906 84.070312 27.65625 84.070312 27.6875 C 84.070312 27.71875 84.09375 27.746094 84.128906 27.746094 Z M 85.175781 27.757812 C 85.214844 27.757812 85.246094 27.726562 85.246094 27.6875 C 85.246094 27.648438 85.214844 27.617188 85.175781 27.617188 C 85.140625 27.617188 85.109375 27.648438 85.109375 27.6875 C 85.109375 27.726562 85.140625 27.757812 85.175781 27.757812 Z M 86.226562 27.769531 C 86.273438 27.769531 86.308594 27.734375 86.308594 27.6875 C 86.308594 27.644531 86.273438 27.605469 86.226562 27.605469 C 86.183594 27.605469 86.144531 27.644531 86.144531 27.6875 C 86.144531 27.734375 86.183594 27.769531 86.226562 27.769531 Z M 87.277344 27.777344 C 87.328125 27.777344 87.367188 27.738281 87.367188 27.6875 C 87.367188 27.636719 87.328125 27.597656 87.277344 27.597656 C 87.226562 27.597656 87.1875 27.636719 87.1875 27.6875 C 87.1875 27.738281 87.226562 27.777344 87.277344 27.777344 Z M 88.328125 27.789062 C 88.382812 27.789062 88.429688 27.742188 88.429688 27.6875 C 88.429688 27.632812 88.382812 27.585938 88.328125 27.585938 C 88.269531 27.585938 88.226562 27.632812 88.226562 27.6875 C 88.226562 27.742188 88.269531 27.789062 88.328125 27.789062 Z M 89.378906 27.800781 C 89.441406 27.800781 89.492188 27.75 89.492188 27.6875 C 89.492188 27.625 89.441406 27.574219 89.378906 27.574219 C 89.3125 27.574219 89.261719 27.625 89.261719 27.6875 C 89.261719 27.75 89.3125 27.800781 89.378906 27.800781 Z M 90.425781 27.808594 C 90.496094 27.808594 90.550781 27.753906 90.550781 27.6875 C 90.550781 27.621094 90.496094 27.566406 90.425781 27.566406 C 90.359375 27.566406 90.304688 27.621094 90.304688 27.6875 C 90.304688 27.753906 90.359375 27.808594 90.425781 27.808594 Z M 91.476562 27.820312 C 91.550781 27.820312 91.609375 27.761719 91.609375 27.6875 C 91.609375 27.617188 91.550781 27.558594 91.476562 27.558594 C 91.402344 27.558594 91.34375 27.617188 91.34375 27.6875 C 91.34375 27.761719 91.402344 27.820312 91.476562 27.820312 Z M 92.527344 27.832031 C 92.605469 27.832031 92.667969 27.765625 92.667969 27.6875 C 92.667969 27.609375 92.605469 27.546875 92.527344 27.546875 C 92.449219 27.546875 92.382812 27.609375 92.382812 27.6875 C 92.382812 27.765625 92.449219 27.832031 92.527344 27.832031 Z M 93.578125 27.839844 C 93.660156 27.839844 93.726562 27.773438 93.726562 27.6875 C 93.726562 27.605469 93.660156 27.535156 93.578125 27.535156 C 93.492188 27.535156 93.425781 27.605469 93.425781 27.6875 C 93.425781 27.773438 93.492188 27.839844 93.578125 27.839844 Z M 94.625 27.847656 C 94.714844 27.847656 94.785156 27.777344 94.785156 27.6875 C 94.785156 27.597656 94.714844 27.527344 94.625 27.527344 C 94.539062 27.527344 94.464844 27.597656 94.464844 27.6875 C 94.464844 27.777344 94.539062 27.847656 94.625 27.847656 Z M 95.675781 27.855469 C 95.769531 27.855469 95.84375 27.78125 95.84375 27.6875 C 95.84375 27.59375 95.769531 27.519531 95.675781 27.519531 C 95.582031 27.519531 95.507812 27.59375 95.507812 27.6875 C 95.507812 27.78125 95.582031 27.855469 95.675781 27.855469 Z M 96.726562 27.867188 C 96.824219 27.867188 96.902344 27.785156 96.902344 27.6875 C 96.902344 27.589844 96.824219 27.511719 96.726562 27.511719 C 96.628906 27.511719 96.546875 27.589844 96.546875 27.6875 C 96.546875 27.785156 96.628906 27.867188 96.726562 27.867188 Z M 97.777344 27.867188 C 97.875 27.867188 97.953125 27.785156 97.953125 27.6875 C 97.953125 27.589844 97.875 27.511719 97.777344 27.511719 C 97.675781 27.511719 97.597656 27.589844 97.597656 27.6875 C 97.597656 27.785156 97.675781 27.867188 97.777344 27.867188 Z M 98.824219 27.84375 C 98.914062 27.84375 98.984375 27.773438 98.984375 27.6875 C 98.984375 27.601562 98.914062 27.53125 98.824219 27.53125 C 98.738281 27.53125 98.667969 27.601562 98.667969 27.6875 C 98.667969 27.773438 98.738281 27.84375 98.824219 27.84375 Z M 99.875 27.796875 C 99.933594 27.796875 99.984375 27.746094 99.984375 27.6875 C 99.984375 27.628906 99.933594 27.582031 99.875 27.582031 C 99.816406 27.582031 99.765625 27.628906 99.765625 27.6875 C 99.765625 27.746094 99.816406 27.796875 99.875 27.796875 Z M 100.925781 27.730469 C 100.949219 27.730469 100.96875 27.710938 100.96875 27.6875 C 100.96875 27.664062 100.949219 27.644531 100.925781 27.644531 C 100.902344 27.644531 100.882812 27.664062 100.882812 27.6875 C 100.882812 27.710938 100.902344 27.730469 100.925781 27.730469 Z M 83.078125 28.742188 C 83.078125 28.742188 83.082031 28.738281 83.082031 28.738281 C 83.082031 28.738281 83.078125 28.734375 83.078125 28.734375 C 83.078125 28.734375 83.074219 28.738281 83.074219 28.738281 C 83.074219 28.738281 83.078125 28.742188 83.078125 28.742188 Z M 84.128906 28.75 C 84.132812 28.75 84.140625 28.746094 84.140625 28.738281 C 84.140625 28.730469 84.132812 28.726562 84.128906 28.726562 C 84.121094 28.726562 84.117188 28.730469 84.117188 28.738281 C 84.117188 28.746094 84.121094 28.75 84.128906 28.75 Z M 85.175781 28.765625 C 85.191406 28.765625 85.203125 28.753906 85.203125 28.738281 C 85.203125 28.722656 85.191406 28.710938 85.175781 28.710938 C 85.164062 28.710938 85.152344 28.722656 85.152344 28.738281 C 85.152344 28.753906 85.164062 28.765625 85.175781 28.765625 Z M 86.226562 28.777344 C 86.25 28.777344 86.265625 28.757812 86.265625 28.738281 C 86.265625 28.71875 86.25 28.699219 86.226562 28.699219 C 86.207031 28.699219 86.191406 28.71875 86.191406 28.738281 C 86.191406 28.757812 86.207031 28.777344 86.226562 28.777344 Z M 87.277344 28.789062 C 87.304688 28.789062 87.328125 28.765625 87.328125 28.738281 C 87.328125 28.710938 87.304688 28.6875 87.277344 28.6875 C 87.25 28.6875 87.226562 28.710938 87.226562 28.738281 C 87.226562 28.765625 87.25 28.789062 87.277344 28.789062 Z M 88.328125 28.800781 C 88.359375 28.800781 88.386719 28.773438 88.386719 28.738281 C 88.386719 28.703125 88.359375 28.675781 88.328125 28.675781 C 88.292969 28.675781 88.265625 28.703125 88.265625 28.738281 C 88.265625 28.773438 88.292969 28.800781 88.328125 28.800781 Z M 89.378906 28.8125 C 89.417969 28.8125 89.449219 28.777344 89.449219 28.738281 C 89.449219 28.699219 89.417969 28.664062 89.378906 28.664062 C 89.335938 28.664062 89.304688 28.699219 89.304688 28.738281 C 89.304688 28.777344 89.335938 28.8125 89.378906 28.8125 Z M 90.425781 28.816406 C 90.46875 28.816406 90.503906 28.78125 90.503906 28.738281 C 90.503906 28.695312 90.46875 28.660156 90.425781 28.660156 C 90.382812 28.660156 90.347656 28.695312 90.347656 28.738281 C 90.347656 28.78125 90.382812 28.816406 90.425781 28.816406 Z M 91.476562 28.816406 C 91.519531 28.816406 91.554688 28.78125 91.554688 28.738281 C 91.554688 28.695312 91.519531 28.660156 91.476562 28.660156 C 91.433594 28.660156 91.398438 28.695312 91.398438 28.738281 C 91.398438 28.78125 91.433594 28.816406 91.476562 28.816406 Z M 92.527344 28.824219 C 92.574219 28.824219 92.609375 28.785156 92.609375 28.738281 C 92.609375 28.691406 92.574219 28.652344 92.527344 28.652344 C 92.480469 28.652344 92.441406 28.691406 92.441406 28.738281 C 92.441406 28.785156 92.480469 28.824219 92.527344 28.824219 Z M 93.578125 28.816406 C 93.621094 28.816406 93.65625 28.78125 93.65625 28.738281 C 93.65625 28.695312 93.621094 28.660156 93.578125 28.660156 C 93.53125 28.660156 93.496094 28.695312 93.496094 28.738281 C 93.496094 28.78125 93.53125 28.816406 93.578125 28.816406 Z M 94.625 28.808594 C 94.664062 28.808594 94.695312 28.777344 94.695312 28.738281 C 94.695312 28.699219 94.664062 28.667969 94.625 28.667969 C 94.585938 28.667969 94.554688 28.699219 94.554688 28.738281 C 94.554688 28.777344 94.585938 28.808594 94.625 28.808594 Z M 95.675781 28.792969 C 95.707031 28.792969 95.730469 28.769531 95.730469 28.738281 C 95.730469 28.707031 95.707031 28.683594 95.675781 28.683594 C 95.644531 28.683594 95.621094 28.707031 95.621094 28.738281 C 95.621094 28.769531 95.644531 28.792969 95.675781 28.792969 Z M 96.726562 28.773438 C 96.746094 28.773438 96.761719 28.757812 96.761719 28.738281 C 96.761719 28.71875 96.746094 28.703125 96.726562 28.703125 C 96.707031 28.703125 96.691406 28.71875 96.691406 28.738281 C 96.691406 28.757812 96.707031 28.773438 96.726562 28.773438 Z M 97.777344 28.75 C 97.78125 28.75 97.789062 28.746094 97.789062 28.738281 C 97.789062 28.730469 97.78125 28.726562 97.777344 28.726562 C 97.769531 28.726562 97.765625 28.730469 97.765625 28.738281 C 97.765625 28.746094 97.769531 28.75 97.777344 28.75 Z M 97.777344 28.75 " fill-opacity="1" fill-rule="nonzero"/></g><g clip-path="url(#99a55db389)"><g clip-path="url(#fcf907ea16)"><g clip-path="url(#32913aed5a)"><path fill="#000000" d="M 14.84375 4.195312 C 12.308594 4.433594 8.453125 5.015625 6.054688 5.773438 C 7.578125 7.558594 8.675781 9.035156 9.851562 11.5 C 10.59375 9.902344 14.710938 4.199219 14.84375 4.195312 " fill-opacity="1" fill-rule="nonzero"/></g></g></g><g clip-path="url(#0f258348d4)"><g clip-path="url(#825661d687)"><g clip-path="url(#2f585e3fc6)"><path fill="#5e17eb" d="M 7.070312 10.074219 C 7.558594 9.976562 8.296875 9.726562 8.832031 9.566406 C 8.589844 9.132812 8.320312 8.742188 8.023438 8.242188 C 9.578125 7.050781 11.257812 6.035156 13.03125 5.210938 C 12.628906 5.398438 12.191406 5.519531 11.773438 5.664062 C 11.082031 5.898438 7.480469 7.464844 7.453125 7.5 C 7.417969 7.550781 7.339844 8.480469 7.261719 8.878906 C 7.238281 8.976562 7.046875 10.078125 7.070312 10.074219 " fill-opacity="1" fill-rule="nonzero"/></g></g></g><g clip-path="url(#c2da4b9ab6)"><g clip-path="url(#d3d4ad323e)"><g clip-path="url(#c5941c2472)"><path fill="#000000" d="M -0.605469 18.609375 C -0.605469 18.609375 -0.375 18.539062 -0.148438 18.46875 C 0.078125 18.421875 0.300781 18.375 0.300781 18.375 L 0.316406 18.371094 C 0.410156 18.347656 0.472656 18.253906 0.453125 18.15625 C 0.429688 18.0625 0.335938 18 0.238281 18.019531 L 0.230469 18.023438 C 0.230469 18.023438 -0.0117188 18.085938 -0.25 18.152344 C -0.476562 18.230469 -0.703125 18.3125 -0.703125 18.3125 C -0.785156 18.339844 -0.828125 18.429688 -0.796875 18.511719 C -0.769531 18.589844 -0.6875 18.632812 -0.605469 18.609375 " fill-opacity="1" fill-rule="nonzero"/></g></g></g><g clip-path="url(#889fe4aa18)"><g clip-path="url(#757f717eaf)"><g clip-path="url(#a616475118)"><path fill="#000000" d="M 1.222656 18.273438 C 1.222656 18.273438 1.460938 18.273438 1.699219 18.273438 C 1.929688 18.292969 2.15625 18.308594 2.15625 18.308594 L 2.171875 18.308594 C 2.289062 18.320312 2.394531 18.230469 2.402344 18.109375 C 2.410156 17.992188 2.320312 17.890625 2.203125 17.878906 L 2.195312 17.878906 C 2.195312 17.878906 1.945312 17.871094 1.691406 17.863281 C 1.453125 17.871094 1.214844 17.878906 1.214844 17.878906 C 1.105469 17.882812 1.019531 17.976562 1.023438 18.085938 C 1.027344 18.191406 1.117188 18.273438 1.222656 18.273438 " fill-opacity="1" fill-rule="nonzero"/></g></g></g><g clip-path="url(#96ef2dfd66)"><g clip-path="url(#b999297a30)"><g clip-path="url(#067a641185)"><path fill="#000000" d="M 3.054688 18.480469 C 3.054688 18.480469 3.113281 18.5 3.199219 18.527344 C 3.242188 18.539062 3.292969 18.554688 3.339844 18.574219 C 3.390625 18.589844 3.441406 18.609375 3.492188 18.628906 C 3.546875 18.648438 3.597656 18.671875 3.648438 18.691406 C 3.695312 18.710938 3.742188 18.734375 3.78125 18.75 C 3.855469 18.789062 3.90625 18.8125 3.90625 18.8125 L 3.917969 18.816406 C 4.042969 18.878906 4.191406 18.824219 4.25 18.699219 C 4.3125 18.578125 4.257812 18.425781 4.132812 18.367188 L 4.128906 18.367188 C 4.128906 18.367188 4.070312 18.339844 3.984375 18.300781 C 3.941406 18.28125 3.890625 18.257812 3.835938 18.238281 C 3.777344 18.21875 3.71875 18.195312 3.660156 18.171875 C 3.597656 18.152344 3.539062 18.132812 3.480469 18.113281 C 3.421875 18.09375 3.375 18.082031 3.328125 18.070312 C 3.242188 18.046875 3.183594 18.03125 3.183594 18.03125 C 3.058594 18 2.929688 18.074219 2.898438 18.199219 C 2.867188 18.320312 2.9375 18.445312 3.054688 18.480469 " fill-opacity="1" fill-rule="nonzero"/></g></g></g><g clip-path="url(#fb6dc95161)"><g clip-path="url(#6d66d6ec34)"><g clip-path="url(#972213a8dc)"><path fill="#000000" d="M 4.65625 19.304688 C 4.65625 19.304688 4.703125 19.34375 4.769531 19.402344 C 4.785156 19.417969 4.804688 19.433594 4.824219 19.449219 C 4.84375 19.46875 4.859375 19.484375 4.878906 19.5 C 4.917969 19.539062 4.957031 19.574219 4.996094 19.613281 C 5.074219 19.695312 5.152344 19.777344 5.207031 19.84375 C 5.261719 19.90625 5.300781 19.953125 5.300781 19.953125 L 5.308594 19.960938 C 5.40625 20.074219 5.582031 20.085938 5.695312 19.988281 C 5.8125 19.886719 5.824219 19.714844 5.726562 19.597656 L 5.71875 19.59375 C 5.71875 19.59375 5.679688 19.546875 5.613281 19.476562 C 5.550781 19.40625 5.460938 19.320312 5.371094 19.230469 C 5.324219 19.183594 5.277344 19.140625 5.230469 19.101562 C 5.207031 19.082031 5.1875 19.058594 5.167969 19.042969 C 5.148438 19.027344 5.128906 19.011719 5.109375 18.996094 C 5.039062 18.941406 4.996094 18.902344 4.996094 18.902344 C 4.882812 18.808594 4.71875 18.828125 4.625 18.9375 C 4.535156 19.050781 4.550781 19.210938 4.65625 19.304688 " fill-opacity="1" fill-rule="nonzero"/></g></g></g><g clip-path="url(#d9a8cd8498)"><g clip-path="url(#962bfa072b)"><g clip-path="url(#baf030e38b)"><path fill="#000000" d="M 5.828125 20.695312 C 5.828125 20.695312 5.949219 20.902344 6.070312 21.109375 C 6.179688 21.3125 6.285156 21.515625 6.285156 21.515625 L 6.292969 21.527344 C 6.371094 21.671875 6.550781 21.730469 6.699219 21.652344 C 6.847656 21.574219 6.902344 21.390625 6.824219 21.242188 L 6.820312 21.238281 C 6.820312 21.238281 6.699219 21.019531 6.578125 20.804688 C 6.449219 20.601562 6.324219 20.394531 6.324219 20.394531 C 6.238281 20.261719 6.0625 20.21875 5.925781 20.304688 C 5.792969 20.386719 5.75 20.558594 5.828125 20.695312 " fill-opacity="1" fill-rule="nonzero"/></g></g></g><g clip-path="url(#2111921a8e)"><g clip-path="url(#694a28f376)"><g clip-path="url(#e93dad2d14)"><path fill="#000000" d="M 6.703125 22.371094 L 7.113281 23.238281 C 7.1875 23.398438 7.375 23.464844 7.535156 23.390625 C 7.691406 23.316406 7.761719 23.125 7.6875 22.96875 L 7.683594 22.964844 L 7.683594 22.960938 L 7.257812 22.101562 C 7.183594 21.945312 7 21.882812 6.84375 21.960938 C 6.695312 22.035156 6.628906 22.214844 6.703125 22.367188 L 6.703125 22.371094 " fill-opacity="1" fill-rule="nonzero"/></g></g></g><g clip-path="url(#12cc116db2)"><g clip-path="url(#9c59fa5b1b)"><g clip-path="url(#a9a4b6d87a)"><path fill="#000000" d="M 7.5625 24.113281 C 7.5625 24.113281 7.679688 24.324219 7.800781 24.53125 C 7.9375 24.742188 8.078125 24.953125 8.078125 24.953125 C 8.175781 25.109375 8.382812 25.152344 8.539062 25.050781 C 8.691406 24.953125 8.734375 24.746094 8.636719 24.589844 L 8.632812 24.585938 L 8.621094 24.570312 C 8.621094 24.570312 8.496094 24.382812 8.367188 24.195312 C 8.242188 23.988281 8.121094 23.785156 8.121094 23.785156 C 8.027344 23.628906 7.828125 23.582031 7.675781 23.671875 C 7.523438 23.765625 7.472656 23.960938 7.5625 24.113281 " fill-opacity="1" fill-rule="nonzero"/></g></g></g><g clip-path="url(#c8c3ee15f8)"><g clip-path="url(#aeee245756)"><g clip-path="url(#4aec2d8b62)"><path fill="#000000" d="M 8.722656 25.742188 C 8.722656 25.742188 8.765625 25.785156 8.828125 25.847656 C 8.84375 25.863281 8.863281 25.882812 8.882812 25.898438 C 8.898438 25.917969 8.925781 25.9375 8.945312 25.957031 C 8.992188 26 9.042969 26.042969 9.089844 26.089844 C 9.140625 26.128906 9.191406 26.167969 9.238281 26.207031 C 9.285156 26.246094 9.332031 26.277344 9.371094 26.304688 C 9.449219 26.363281 9.503906 26.398438 9.503906 26.398438 C 9.65625 26.511719 9.871094 26.476562 9.980469 26.320312 C 10.089844 26.167969 10.054688 25.953125 9.902344 25.84375 L 9.886719 25.832031 C 9.886719 25.832031 9.839844 25.800781 9.773438 25.75 C 9.738281 25.726562 9.699219 25.699219 9.660156 25.667969 C 9.617188 25.632812 9.574219 25.601562 9.53125 25.566406 C 9.492188 25.53125 9.449219 25.496094 9.414062 25.460938 C 9.394531 25.445312 9.375 25.429688 9.355469 25.410156 C 9.339844 25.394531 9.320312 25.375 9.304688 25.359375 C 9.238281 25.296875 9.195312 25.257812 9.195312 25.257812 C 9.0625 25.125 8.847656 25.128906 8.714844 25.265625 C 8.585938 25.398438 8.589844 25.613281 8.722656 25.742188 " fill-opacity="1" fill-rule="nonzero"/></g></g></g><g clip-path="url(#4b80d602a1)"><g clip-path="url(#5c056c7d12)"><g clip-path="url(#e517c2f328)"><path fill="#000000" d="M 10.417969 26.886719 C 10.417969 26.886719 10.472656 26.90625 10.558594 26.9375 L 10.566406 26.941406 L 10.59375 26.953125 L 10.609375 26.957031 C 10.621094 26.960938 10.632812 26.964844 10.648438 26.96875 C 10.671875 26.976562 10.695312 26.984375 10.722656 26.992188 C 10.777344 27.007812 10.835938 27.027344 10.890625 27.046875 C 10.921875 27.054688 10.949219 27.0625 10.976562 27.070312 C 11.011719 27.078125 11.042969 27.085938 11.074219 27.09375 C 11.132812 27.105469 11.191406 27.117188 11.242188 27.128906 C 11.339844 27.148438 11.40625 27.164062 11.40625 27.164062 C 11.59375 27.203125 11.777344 27.082031 11.816406 26.894531 C 11.859375 26.707031 11.738281 26.523438 11.550781 26.484375 L 11.515625 26.476562 C 11.515625 26.476562 11.464844 26.464844 11.390625 26.449219 C 11.351562 26.441406 11.304688 26.433594 11.257812 26.421875 C 11.234375 26.417969 11.207031 26.414062 11.183594 26.410156 C 11.152344 26.398438 11.125 26.390625 11.097656 26.382812 C 10.992188 26.351562 10.882812 26.316406 10.804688 26.292969 C 10.71875 26.261719 10.664062 26.238281 10.664062 26.238281 C 10.484375 26.171875 10.285156 26.261719 10.21875 26.441406 C 10.152344 26.617188 10.238281 26.816406 10.417969 26.886719 " fill-opacity="1" fill-rule="nonzero"/></g></g></g><g clip-path="url(#d0d19ab13e)"><g clip-path="url(#45b1302074)"><g clip-path="url(#1472d2f218)"><path fill="#000000" d="M 12.449219 27.214844 C 12.449219 27.214844 12.511719 27.210938 12.597656 27.203125 C 12.621094 27.199219 12.644531 27.195312 12.671875 27.195312 C 12.695312 27.191406 12.730469 27.1875 12.757812 27.183594 C 12.820312 27.175781 12.886719 27.164062 12.953125 27.15625 C 13.019531 27.140625 13.082031 27.128906 13.140625 27.117188 C 13.199219 27.105469 13.253906 27.09375 13.300781 27.082031 C 13.394531 27.054688 13.457031 27.039062 13.457031 27.039062 C 13.648438 26.992188 13.761719 26.800781 13.710938 26.609375 C 13.664062 26.421875 13.472656 26.308594 13.28125 26.355469 L 13.261719 26.359375 C 13.261719 26.359375 13.210938 26.375 13.128906 26.394531 C 13.089844 26.40625 13.042969 26.417969 12.992188 26.429688 C 12.941406 26.4375 12.886719 26.449219 12.832031 26.460938 C 12.78125 26.46875 12.726562 26.476562 12.679688 26.484375 C 12.652344 26.488281 12.632812 26.492188 12.605469 26.496094 C 12.582031 26.496094 12.558594 26.5 12.535156 26.503906 C 12.445312 26.511719 12.386719 26.515625 12.386719 26.515625 C 12.191406 26.535156 12.050781 26.707031 12.070312 26.898438 C 12.089844 27.089844 12.257812 27.230469 12.449219 27.214844 " fill-opacity="1" fill-rule="nonzero"/></g></g></g><g clip-path="url(#7be9d28215)"><g clip-path="url(#48ec496e48)"><g clip-path="url(#7acd74ad7f)"><path fill="#000000" d="M 14.425781 26.65625 C 14.425781 26.65625 14.632812 26.535156 14.839844 26.414062 C 15.058594 26.261719 15.273438 26.113281 15.273438 26.113281 C 15.433594 26 15.46875 25.78125 15.359375 25.621094 C 15.246094 25.464844 15.027344 25.425781 14.871094 25.539062 L 14.84375 25.554688 C 14.84375 25.554688 14.667969 25.679688 14.492188 25.804688 C 14.28125 25.921875 14.074219 26.039062 14.074219 26.039062 C 13.90625 26.136719 13.84375 26.351562 13.941406 26.523438 C 14.039062 26.691406 14.253906 26.753906 14.425781 26.65625 " fill-opacity="1" fill-rule="nonzero"/></g></g></g><g clip-path="url(#e705db0cff)"><g clip-path="url(#57add45144)"><g clip-path="url(#5019fb7464)"><path fill="#000000" d="M 16.03125 25.40625 C 16.03125 25.40625 16.183594 25.222656 16.335938 25.039062 C 16.488281 24.824219 16.636719 24.609375 16.636719 24.609375 C 16.746094 24.453125 16.707031 24.238281 16.550781 24.128906 C 16.394531 24.019531 16.179688 24.058594 16.070312 24.214844 L 16.054688 24.238281 C 16.054688 24.238281 15.929688 24.417969 15.804688 24.59375 C 15.652344 24.777344 15.496094 24.960938 15.496094 24.960938 C 15.371094 25.109375 15.390625 25.328125 15.539062 25.453125 C 15.6875 25.574219 15.90625 25.554688 16.03125 25.410156 L 16.03125 25.40625 " fill-opacity="1" fill-rule="nonzero"/></g></g></g><g clip-path="url(#d49a219303)"><g clip-path="url(#8d7ceb64e9)"><g clip-path="url(#f428924db6)"><path fill="#000000" d="M 17.109375 23.691406 C 17.109375 23.691406 17.191406 23.464844 17.273438 23.242188 C 17.34375 22.988281 17.410156 22.738281 17.410156 22.738281 C 17.460938 22.554688 17.355469 22.371094 17.175781 22.320312 C 16.992188 22.269531 16.804688 22.375 16.753906 22.558594 L 16.75 22.582031 C 16.75 22.582031 16.691406 22.792969 16.632812 23.003906 C 16.546875 23.230469 16.464844 23.453125 16.464844 23.453125 C 16.398438 23.632812 16.488281 23.828125 16.667969 23.894531 C 16.84375 23.960938 17.042969 23.871094 17.109375 23.691406 " fill-opacity="1" fill-rule="nonzero"/></g></g></g><g clip-path="url(#415d89c07b)"><g clip-path="url(#f9b00ad464)"><g clip-path="url(#b966d03497)"><path fill="#000000" d="M 17.550781 21.71875 C 17.550781 21.71875 17.554688 21.480469 17.558594 21.238281 C 17.542969 20.980469 17.523438 20.722656 17.523438 20.722656 C 17.511719 20.542969 17.359375 20.40625 17.179688 20.417969 C 17 20.429688 16.863281 20.582031 16.875 20.761719 L 16.875 20.785156 C 16.875 20.785156 16.886719 21.007812 16.898438 21.226562 C 16.890625 21.464844 16.882812 21.707031 16.882812 21.707031 C 16.878906 21.890625 17.023438 22.042969 17.207031 22.050781 C 17.390625 22.054688 17.546875 21.910156 17.550781 21.726562 L 17.550781 21.71875 " fill-opacity="1" fill-rule="nonzero"/></g></g></g><g clip-path="url(#8d02b23eac)"><g clip-path="url(#9b8d13b24c)"><g clip-path="url(#d0ac66f692)"><path fill="#000000" d="M 17.339844 19.722656 C 17.339844 19.722656 17.269531 19.492188 17.199219 19.261719 C 17.109375 19.023438 17.019531 18.785156 17.019531 18.785156 C 16.957031 18.625 16.78125 18.542969 16.621094 18.605469 C 16.460938 18.664062 16.378906 18.839844 16.4375 19 L 16.445312 19.019531 C 16.445312 19.019531 16.519531 19.230469 16.597656 19.4375 C 16.664062 19.667969 16.726562 19.898438 16.726562 19.898438 C 16.777344 20.070312 16.953125 20.167969 17.121094 20.121094 C 17.289062 20.070312 17.386719 19.894531 17.339844 19.726562 L 17.339844 19.722656 " fill-opacity="1" fill-rule="nonzero"/></g></g></g><g clip-path="url(#d91d7d46a2)"><g clip-path="url(#5919b9bd17)"><g clip-path="url(#a2b643206f)"><path fill="#000000" d="M 16.566406 17.882812 C 16.566406 17.882812 16.4375 17.679688 16.308594 17.476562 C 16.160156 17.273438 16.011719 17.066406 16.011719 17.066406 C 15.917969 16.9375 15.734375 16.910156 15.605469 17.003906 C 15.480469 17.097656 15.449219 17.273438 15.539062 17.402344 L 15.546875 17.417969 C 15.546875 17.417969 15.675781 17.601562 15.804688 17.789062 C 15.929688 17.996094 16.054688 18.199219 16.054688 18.199219 C 16.140625 18.34375 16.324219 18.386719 16.46875 18.300781 C 16.609375 18.214844 16.65625 18.03125 16.570312 17.886719 L 16.566406 17.882812 " fill-opacity="1" fill-rule="nonzero"/></g></g></g><g clip-path="url(#7ad313ccbc)"><g clip-path="url(#e02c668bd9)"><g clip-path="url(#a0952bbdd3)"><path fill="#000000" d="M 15.347656 16.316406 C 15.347656 16.316406 15.171875 16.152344 14.996094 15.988281 C 14.800781 15.828125 14.605469 15.667969 14.605469 15.667969 C 14.496094 15.574219 14.328125 15.589844 14.234375 15.703125 C 14.144531 15.8125 14.160156 15.976562 14.265625 16.070312 L 14.277344 16.082031 C 14.277344 16.082031 14.449219 16.230469 14.621094 16.378906 C 14.792969 16.546875 14.960938 16.714844 14.960938 16.714844 C 15.070312 16.824219 15.246094 16.824219 15.355469 16.714844 C 15.460938 16.605469 15.460938 16.429688 15.351562 16.320312 L 15.347656 16.316406 " fill-opacity="1" fill-rule="nonzero"/></g></g></g><g clip-path="url(#e18d0c87ab)"><g clip-path="url(#60adeb7ab5)"><g clip-path="url(#d2d0f3627b)"><path fill="#000000" d="M 13.777344 15.109375 C 13.777344 15.109375 13.566406 14.996094 13.355469 14.882812 C 13.125 14.777344 12.894531 14.675781 12.894531 14.675781 C 12.777344 14.621094 12.636719 14.675781 12.582031 14.792969 C 12.53125 14.910156 12.582031 15.042969 12.695312 15.097656 L 12.710938 15.105469 C 12.710938 15.105469 12.914062 15.207031 13.117188 15.308594 C 13.324219 15.425781 13.535156 15.546875 13.535156 15.546875 C 13.652344 15.617188 13.804688 15.574219 13.875 15.453125 C 13.945312 15.335938 13.902344 15.179688 13.78125 15.113281 L 13.777344 15.109375 " fill-opacity="1" fill-rule="nonzero"/></g></g></g><g clip-path="url(#6f0e7f834e)"><g clip-path="url(#2ed7446c4d)"><g clip-path="url(#186bceaa03)"><path fill="#000000" d="M 11.933594 14.394531 L 10.992188 14.210938 C 10.882812 14.191406 10.777344 14.261719 10.757812 14.367188 C 10.738281 14.472656 10.804688 14.574219 10.90625 14.597656 L 11.839844 14.816406 L 11.84375 14.816406 C 11.960938 14.84375 12.078125 14.773438 12.105469 14.65625 C 12.132812 14.539062 12.058594 14.421875 11.941406 14.394531 L 11.933594 14.394531 " fill-opacity="1" fill-rule="nonzero"/></g></g></g><g clip-path="url(#f8ee01f131)"><g clip-path="url(#f794e7d48e)"><g clip-path="url(#7b6f04bda5)"><path fill="#000000" d="M 10.054688 14.035156 L 9.117188 13.832031 C 9.03125 13.8125 8.949219 13.867188 8.929688 13.953125 C 8.914062 14.035156 8.964844 14.113281 9.042969 14.136719 L 9.972656 14.382812 C 10.066406 14.40625 10.167969 14.351562 10.191406 14.253906 C 10.21875 14.160156 10.160156 14.0625 10.0625 14.035156 L 10.054688 14.035156 " fill-opacity="1" fill-rule="nonzero"/></g></g></g><g clip-path="url(#72d42146a8)"><g clip-path="url(#47e730ad64)"><g clip-path="url(#166602ffa9)"><path fill="#000000" d="M 8.210938 13.585938 C 8.210938 13.585938 7.984375 13.503906 7.757812 13.425781 C 7.703125 13.40625 7.648438 13.382812 7.597656 13.359375 C 7.546875 13.339844 7.5 13.320312 7.460938 13.300781 C 7.378906 13.265625 7.328125 13.246094 7.328125 13.246094 L 7.316406 13.242188 C 7.261719 13.21875 7.199219 13.242188 7.175781 13.300781 C 7.152344 13.351562 7.175781 13.414062 7.226562 13.4375 C 7.226562 13.4375 7.285156 13.464844 7.367188 13.507812 C 7.40625 13.527344 7.457031 13.550781 7.507812 13.574219 C 7.558594 13.601562 7.617188 13.628906 7.671875 13.652344 C 7.894531 13.742188 8.117188 13.832031 8.117188 13.832031 C 8.183594 13.859375 8.261719 13.828125 8.289062 13.761719 C 8.316406 13.691406 8.285156 13.613281 8.214844 13.585938 L 8.210938 13.585938 " fill-opacity="1" fill-rule="nonzero"/></g></g></g><g clip-path="url(#3f07778e06)"><g clip-path="url(#f31560d3b6)"><g clip-path="url(#4afc7dd534)"><path fill="#000000" d="M 6.542969 12.75 C 6.542969 12.75 6.53125 12.738281 6.515625 12.71875 C 6.496094 12.703125 6.464844 12.675781 6.4375 12.644531 C 6.410156 12.613281 6.375 12.578125 6.34375 12.535156 C 6.328125 12.515625 6.308594 12.492188 6.292969 12.46875 C 6.277344 12.445312 6.261719 12.421875 6.246094 12.398438 C 6.230469 12.375 6.21875 12.347656 6.203125 12.324219 C 6.1875 12.300781 6.179688 12.273438 6.167969 12.25 C 6.15625 12.226562 6.144531 12.203125 6.136719 12.179688 C 6.128906 12.15625 6.121094 12.132812 6.117188 12.113281 C 6.101562 12.074219 6.097656 12.039062 6.089844 12.011719 C 6.082031 11.988281 6.078125 11.976562 6.078125 11.976562 L 6.078125 11.96875 C 6.070312 11.941406 6.042969 11.925781 6.015625 11.933594 C 5.992188 11.9375 5.972656 11.964844 5.976562 11.988281 C 5.976562 11.988281 5.980469 12.003906 5.984375 12.03125 C 5.992188 12.058594 5.992188 12.097656 6.007812 12.144531 C 6.011719 12.167969 6.019531 12.191406 6.027344 12.21875 C 6.035156 12.242188 6.046875 12.269531 6.054688 12.296875 C 6.066406 12.324219 6.074219 12.351562 6.089844 12.378906 C 6.101562 12.40625 6.117188 12.4375 6.132812 12.464844 C 6.148438 12.492188 6.164062 12.519531 6.179688 12.546875 C 6.195312 12.574219 6.210938 12.597656 6.230469 12.621094 C 6.261719 12.667969 6.296875 12.710938 6.328125 12.75 C 6.359375 12.785156 6.382812 12.8125 6.402344 12.832031 C 6.417969 12.851562 6.429688 12.859375 6.429688 12.859375 C 6.460938 12.894531 6.511719 12.894531 6.542969 12.867188 C 6.574219 12.835938 6.578125 12.785156 6.546875 12.753906 L 6.542969 12.75 " fill-opacity="1" fill-rule="nonzero"/></g></g></g><g clip-path="url(#414921818d)"><g clip-path="url(#6317a955e3)"><g clip-path="url(#5a214698db)"><path fill="#000000" d="M 6.214844 11.058594 C 6.214844 11.058594 6.226562 11.03125 6.246094 10.992188 C 6.257812 10.972656 6.269531 10.949219 6.28125 10.921875 C 6.292969 10.898438 6.304688 10.871094 6.316406 10.84375 C 6.375 10.742188 6.4375 10.640625 6.4375 10.640625 C 6.4375 10.640625 6.371094 10.738281 6.304688 10.835938 C 6.285156 10.863281 6.273438 10.886719 6.257812 10.914062 C 6.246094 10.9375 6.234375 10.960938 6.222656 10.980469 C 6.199219 11.015625 6.183594 11.042969 6.183594 11.042969 C 6.179688 11.050781 6.183594 11.0625 6.191406 11.066406 C 6.199219 11.070312 6.210938 11.066406 6.214844 11.058594 " fill-opacity="1" fill-rule="nonzero"/></g></g></g></svg>